<svg xmlns="http://www.w3.org/2000/svg" xmlns:xlink="http://www.w3.org/1999/xlink" viewBox="0 0 994 1080"><defs><style>.cls-1,.cls-18,.cls-21,.cls-23,.cls-26,.cls-36,.cls-39,.cls-40,.cls-41{fill:none;}.cls-2{isolation:isolate;}.cls-3{clip-path:url(#clip-path);}.cls-14,.cls-4,.cls-5{fill:#282828;mix-blend-mode:multiply;}.cls-4,.cls-41{opacity:0.4;}.cls-5{opacity:0.43;}.cls-6{fill:#4855a9;}.cls-7{fill:#fff;}.cls-8{fill:#1e2975;}.cls-9{fill:#502ce5;}.cls-10{fill:url(#linear-gradient);}.cls-11{opacity:0.92;}.cls-12{fill:url(#linear-gradient-2);}.cls-13{fill:url(#linear-gradient-3);}.cls-14{opacity:0.39;}.cls-15{fill:#010101;}.cls-16{fill:#ffa18d;}.cls-17{fill:#4376cf;}.cls-18{stroke:#010101;stroke-linecap:round;}.cls-18,.cls-21,.cls-26,.cls-36{stroke-linejoin:round;}.cls-19{fill:#ffbdf2;}.cls-20{fill:#ffa10b;}.cls-21{stroke:#fff;}.cls-22{fill:#89b5f4;}.cls-23{stroke:#e887da;}.cls-23,.cls-39,.cls-40,.cls-41{stroke-miterlimit:10;}.cls-24{fill:#e887da;}.cls-25{fill:#1b084c;}.cls-26,.cls-36{stroke:#4376cf;}.cls-27{fill:#6836ff;}.cls-28{fill:#f05448;}.cls-29{fill:#910076;}.cls-30{fill:#f8f4f1;}.cls-31{fill:#f92b66;}.cls-32{fill:#699fed;}.cls-33{fill:#1238a7;}.cls-34{fill:#173682;}.cls-35{fill:#222256;}.cls-36{stroke-width:0.75px;}.cls-37,.cls-38{fill:#071d24;}.cls-37,.cls-44{mix-blend-mode:soft-light;}.cls-39,.cls-40,.cls-41{stroke:#eeeff2;}.cls-39{stroke-width:2px;}.cls-39,.cls-40{opacity:0.89;}.cls-42{fill:#300d59;}.cls-43,.cls-44{fill:#0d0c26;}</style><clipPath id="clip-path"><rect class="cls-1" width="994" height="1080"/></clipPath><linearGradient id="linear-gradient" x1="1284.5" y1="539.5" x2="132" y2="539.5" gradientUnits="userSpaceOnUse"><stop offset="0.01" stop-color="#66155e"/><stop offset="0.33" stop-color="#64145f"/><stop offset="0.51" stop-color="#5b1363"/><stop offset="0.65" stop-color="#4d1069"/><stop offset="0.78" stop-color="#3a0c72"/><stop offset="0.89" stop-color="#20077e"/><stop offset="1" stop-color="#01008c"/><stop offset="1" stop-color="#00008d"/></linearGradient><linearGradient id="linear-gradient-2" x1="649.87" y1="322.61" x2="746.8" y2="322.61" gradientUnits="userSpaceOnUse"><stop offset="0.01" stop-color="#66155e"/><stop offset="0.18" stop-color="#5e1362"/><stop offset="0.43" stop-color="#470f6c"/><stop offset="0.74" stop-color="#23077d"/><stop offset="1" stop-color="#00008d"/></linearGradient><linearGradient id="linear-gradient-3" x1="601.56" y1="377.66" x2="639.19" y2="377.66" xlink:href="#linear-gradient-2"/></defs><title>Code Cube Website Illustrations</title><g class="cls-2"><g id="Layer_1" data-name="Layer 1"><g class="cls-3"><ellipse class="cls-4" cx="276.5" cy="749.26" rx="31" ry="4.08"/><ellipse class="cls-5" cx="198" cy="750.55" rx="115.5" ry="7.79"/><path class="cls-6" d="M134.54,645.21c-5.79-8.68-12.8-16.49-18.61-25.15-11.15-16.64-17.52-35.91-25.39-54.32-7-16.47-19-34.76-36.91-34.45-15.69.28-27.24,15.46-31.45,30.57A76.8,76.8,0,0,0,33.87,626.6c11.43,15.72,28.34,26.34,43.89,38s30.79,25.69,36.22,44.35c2.81,9.67,2.87,20.25,7.64,29.12,4,7.37,15.69,15.2,23.19,8.57,5.7-5,6.55-24.22,7.19-31.21C154.21,691,148.18,665.69,134.54,645.21Z"/><path class="cls-6" d="M138.56,701.4c6.39-1.27,8.17-9.49,8.13-16a143.23,143.23,0,0,0-5-36.48c-5-18.48-13.8-36.37-13.79-55.52,0-8.53,1.77-16.94,3.28-25.33,3.25-18,5.34-36.59,2.18-54.64s-12.16-35.71-27.3-46c-6.53-4.46-14.32-7.49-22.21-7S68.1,465.47,65,472.75c-5,11.78,3.42,24.58,11.1,34.82q8.25,11,16,22.31c4,5.78,7.88,11.7,10.13,18.34,5.54,16.35.23,34.12-1.16,51.33a113.26,113.26,0,0,0,29.69,85.28Z"/><path class="cls-6" d="M50.72,470.75q.84,10,1.66,20a3.55,3.55,0,0,1-.33,2.33,2.94,2.94,0,0,1-1.88,1c-3.65.73-7.43-1.39-9.55-4.45s-2.84-6.87-3.08-10.58a18.23,18.23,0,0,1,1-8.21,8.21,8.21,0,0,1,6.08-5.15c2.76-.38,5.82,1.56,6.09,4.33"/><path class="cls-7" d="M101.31,592.15a59.22,59.22,0,0,1,5.16,6.53,69.76,69.76,0,0,1,4.26,7.17,71,71,0,0,1,3.32,7.65,57.48,57.48,0,0,1,2.27,8c-.85-2.64-1.77-5.25-2.81-7.81s-2.16-5.07-3.44-7.51-2.62-4.85-4.08-7.19S103,594.39,101.31,592.15Z"/><path class="cls-7" d="M52.68,537.43A79.23,79.23,0,0,0,52,551.37a90.55,90.55,0,0,0,1.87,13.82,111.63,111.63,0,0,0,3.91,13.4,135.49,135.49,0,0,0,5.53,12.81c2.09,4.16,4.37,8.22,6.8,12.19s5.07,7.82,7.76,11.61c5.43,7.58,11.22,14.89,17,22.18s11.54,14.67,17,22.28c2.69,3.82,5.28,7.7,7.74,11.68s4.69,8.08,6.78,12.26a139.18,139.18,0,0,1,5.5,12.88,110.55,110.55,0,0,1,3.87,13.46,93,93,0,0,1,1.72,13.89,81.48,81.48,0,0,1-.83,14,80.35,80.35,0,0,0,.64-13.95A90.59,90.59,0,0,0,135.39,710a111,111,0,0,0-3.92-13.39,135.57,135.57,0,0,0-5.54-12.81q-3.15-6.24-6.81-12.19c-2.46-4-5.07-7.81-7.77-11.6-5.43-7.58-11.22-14.88-17-22.18s-11.54-14.67-16.94-22.29q-4-5.71-7.74-11.67c-2.42-4-4.69-8.08-6.77-12.27a139.1,139.1,0,0,1-5.49-12.88,108.85,108.85,0,0,1-3.85-13.47,91.51,91.51,0,0,1-1.71-13.89A80.32,80.32,0,0,1,52.68,537.43Z"/><path class="cls-7" d="M23.33,568.83a108.94,108.94,0,0,0,10,12.46,106.22,106.22,0,0,0,24.87,19.79A108,108,0,0,0,72.56,608a88.83,88.83,0,0,1-14.67-6.41,94.64,94.64,0,0,1-25-19.91A88.44,88.44,0,0,1,23.33,568.83Z"/><path class="cls-7" d="M44.79,636.94l3.82,1.79,3.85,1.71,3.87,1.65,3.91,1.56c5.22,2,10.52,3.9,15.9,5.48s10.8,3,16.29,4.2l4.12.85,4.14.76,4.15.7,4.17.61-4.19-.43-4.19-.52-4.17-.65-4.15-.75c-5.52-1.07-11-2.46-16.39-4s-10.7-3.51-15.9-5.66l-3.88-1.67-3.83-1.75-3.78-1.88Z"/><path class="cls-7" d="M114.43,702.63a41.57,41.57,0,0,1,6,1.77,47.44,47.44,0,0,1,5.69,2.54,48.22,48.22,0,0,1,5.33,3.24,42.13,42.13,0,0,1,4.84,3.9c-1.7-1.18-3.41-2.34-5.16-3.42s-3.53-2.11-5.36-3.06-3.67-1.83-5.56-2.67S116.37,703.36,114.43,702.63Z"/><path class="cls-7" d="M79.44,549.72q1,5.49,2.09,10.95t2.32,10.9c1.64,7.24,3.42,14.46,5.44,21.61,1,3.58,2,7.15,3.1,10.7s2.25,7.09,3.1,10.72a44.22,44.22,0,0,1,1.36,11.1,25.33,25.33,0,0,1-2.57,10.8,25,25,0,0,0,2.2-10.8,43.22,43.22,0,0,0-1.55-11c-.93-3.58-2.09-7.11-3.19-10.66s-2.17-7.12-3.18-10.7c-2-7.18-3.75-14.41-5.27-21.69q-1.14-5.46-2.12-11T79.44,549.72Z"/><path class="cls-7" d="M124.73,640.49a96.27,96.27,0,0,1,3.68,12.35,109.79,109.79,0,0,1,2.08,12.74,106.85,106.85,0,0,1,.49,12.9,96.62,96.62,0,0,1-1.15,12.83c.37-4.27.59-8.56.57-12.84a122,122,0,0,0-.65-12.82,123.68,123.68,0,0,0-1.9-12.69C127,648.76,126,644.61,124.73,640.49Z"/><path class="cls-7" d="M71.8,470.74A62.32,62.32,0,0,1,93.44,481.3a61.71,61.71,0,0,1,21.1,29.06,76,76,0,0,1,3,11.77,101.68,101.68,0,0,1,1.28,12.06c.21,4,.23,8.08.14,12.12-.38,16.14-2.66,32.25-.81,48.31.17,2,.52,4,.8,6l.56,3,.29,1.48.36,1.47A69.05,69.05,0,0,0,123.88,618a53.57,53.57,0,0,0,5.9,10.49,48.06,48.06,0,0,0,8.35,8.69,48,48,0,0,1-8.5-8.58,54.31,54.31,0,0,1-6.09-10.46,69.16,69.16,0,0,1-3.83-11.49l-.37-1.47-.3-1.49-.58-3c-.29-2-.66-4-.84-6a149.43,149.43,0,0,1-.56-24.21c.36-8.06,1-16.11,1.12-24.17.12-4,.12-8-.07-12.07a102.51,102.51,0,0,0-1.21-12A75.9,75.9,0,0,0,114,510.54a60.91,60.91,0,0,0-5-10.94A63.34,63.34,0,0,0,71.8,470.74Z"/><path class="cls-7" d="M70.79,490.69a62.8,62.8,0,0,0,12.36,6.88,112,112,0,0,1,12.77,6.3,67.41,67.41,0,0,1,11,9q5.08,5,10.05,10c-3.53-3.16-7-6.41-10.45-9.63a69.9,69.9,0,0,0-11-8.78,123.36,123.36,0,0,0-12.61-6.42A53.48,53.48,0,0,1,70.79,490.69Z"/><path class="cls-7" d="M104.86,473.17c3,4.26,5.91,8.59,8.51,13.12a75.63,75.63,0,0,1,6.45,14.26,47.62,47.62,0,0,1,2.3,15.49,33.24,33.24,0,0,1-3.81,15.07A35.77,35.77,0,0,0,121.55,516a49.1,49.1,0,0,0-2.44-15.25,80.13,80.13,0,0,0-6.24-14.21C110.39,482,107.61,477.6,104.86,473.17Z"/><path class="cls-7" d="M97.07,529.62a92.59,92.59,0,0,1,5.83,9.15c1.77,3.16,3.34,6.43,4.79,9.75s2.57,6.79,3.86,10.13a26.9,26.9,0,0,0,2.4,4.8,14.2,14.2,0,0,0,3.62,3.95,13.6,13.6,0,0,1-3.93-3.74,27.77,27.77,0,0,1-2.62-4.78c-.74-1.66-1.34-3.38-2-5.06s-1.33-3.35-2-5c-1.38-3.33-3-6.58-4.61-9.78S98.94,532.71,97.07,529.62Z"/><path class="cls-7" d="M129.67,550.87a89.49,89.49,0,0,1-.81,14.16,95.46,95.46,0,0,1-3,13.89c-1.34,4.56-3.19,8.93-4.53,13.43s-2.08,9.26-1.11,13.92a21.77,21.77,0,0,1-.67-7.06,37,37,0,0,1,1.23-7c1.23-4.6,3.09-9,4.36-13.49A104.25,104.25,0,0,0,128.29,565,118.57,118.57,0,0,0,129.67,550.87Z"/><path class="cls-8" d="M116.36,396.65V724.81c0,12.4,9.31,23.1,21.65,24.11.56.05,1.13.08,1.71.11,18.35.65,88.56-5,106.57-6.45a21,21,0,0,0,12.53-5.38c4.39-4,9-11.05,9.79-22.92V408.39s1.51-18.88-21.1-22.66L144.37,374.41a27.32,27.32,0,0,0-20.52,5.92l-1,.89A21,21,0,0,0,116.36,396.65Z"/><path class="cls-9" d="M123.39,397.44V724.91c0,12.38,9.32,23.05,21.65,24.07.56,0,1.13.08,1.72.1,18.35.65,88.56-5,106.57-6.44a21,21,0,0,0,12.53-5.36c4.39-4,9-11,9.78-22.87V409.15s1.51-18.84-21.1-22.61l-103.13-11.3a27.34,27.34,0,0,0-20.53,5.92c-.34.28-.68.58-1,.88A20.93,20.93,0,0,0,123.39,397.44Z"/><path class="cls-10" d="M1213.27,126.63l-1.56,878.42c-41.73,5.53-83.61-8.64-121.52-26.94s-73.9,49-113.77,35.48c-82.89-28.07-173.23-103.72-260.21-94.06s-181,12.78-255.31-33.46c-69-43-123.94-118.18-190.53-164.57v.07L159,727l-27.35,1.34,0-20.18-.18-79.2-.15-65.7-.18-79.69L131,443.94l-.11-47.6,43.58,4.13,36.3,3.42,59.56,5.64v-.07c46.58-12.87,103.57-12,150.64-.41,49.52,12.23,99.7,27.4,150.66,23.34,63.2-5,120.08-39.25,167.59-79.63s148.35-217.67,196.81-257,47.37-31.14,110.77-32C1109.53,63,1169.77,83.23,1213.27,126.63Z"/><path class="cls-8" d="M216.1,393.58H216l-24.87-2.26a1.51,1.51,0,0,1,.27-3l24.88,2.26a1.49,1.49,0,0,1,1.36,1.63A1.51,1.51,0,0,1,216.1,393.58Z"/><g class="cls-11"><path class="cls-12" d="M714,348c15.61-14.08,28.26-32.32,32-53,1.22-6.65,1.4-13.95-2.19-19.68-5.34-8.52-17.05-10.54-27-9.05-20.49,3.08-38.11,17.4-48.92,35.08s-15.52,38.44-17.75,59C645.38,404.5,701.41,359.36,714,348Z"/><path class="cls-13" d="M613.43,366a28.91,28.91,0,0,1,3.94-7.8,9.79,9.79,0,0,1,7.45-4c2.71,0,5.19,1.58,7.16,3.45,6.72,6.32,8.92,16.81,5.84,25.5s-11.08,15.32-20.09,17.3a30.73,30.73,0,0,1-13,0c-4.9-1.06-3-4-1.55-7.7Z"/></g><path class="cls-7" d="M828.94,498.76h128a5,5,0,0,0-2.66-2.8c-2.37-1-5-.41-7.57-.08s-5.41.34-7.28-1.41-2.18-5.18-4.3-6.91c-4.12-3.36-10.47,2.21-15.41.25s-5.34-9.95-10.43-11.22c-4.67-1.16-8.91,4.59-13.64,3.67-2.63-.51-4.45-3-5.27-5.54s-.91-5.28-1.58-7.87a18,18,0,0,0-35.08.56c-.7,3.08-.57,6.3-1.22,9.39s-2.32,6.27-5.27,7.39c-4,1.52-8.37-1.28-12.65-1.08a9.34,9.34,0,0,0-8.56,8.14A9.25,9.25,0,0,0,828.94,498.76Z"/><path class="cls-7" d="M1012.43,335.76h-116c-4.86,0-7-6.3-3.1-9.13a9.39,9.39,0,0,1,6.81-1.83c2.64.38,5.33,1.78,7.84.87,4.33-1.56,4.18-8.31,8-10.82s9.32.7,12.39,3.39a12.77,12.77,0,0,0,5.74,3c11.16,2.35,11.68-15.19,21-16.79,6.68-1.15,11.51,6.87,18.19,8,6.29,1.08,11.83-4.2,15.31-9.55,4.18-6.43,7.68-14.13,16.05-15.58a16,16,0,0,1,12.95,3.74c7.31,6.15,8.7,16.3,6.63,25.17-1.41,6.05-4.27,11.63-7.46,17A5.11,5.11,0,0,1,1012.43,335.76Z"/><path class="cls-7" d="M365.3,446.87H311.08a2.38,2.38,0,0,1-1.45-4.27,4.41,4.41,0,0,1,3.18-.85c1.24.18,2.49.83,3.67.41,2-.73,1.95-3.89,3.75-5.06s4.36.33,5.79,1.59a6,6,0,0,0,2.68,1.41c5.22,1.1,5.46-7.1,9.83-7.85,3.12-.53,5.38,3.21,8.5,3.75,2.94.5,5.53-2,7.16-4.47,1.95-3,3.59-6.6,7.5-7.28a7.52,7.52,0,0,1,6.05,1.75c3.41,2.87,4.07,7.62,3.1,11.77a28.51,28.51,0,0,1-3.49,7.94A2.39,2.39,0,0,1,365.3,446.87Z"/><ellipse class="cls-14" cx="379.5" cy="746.26" rx="75" ry="4.08"/><ellipse class="cls-14" cx="498" cy="745.26" rx="23.5" ry="4.08"/><ellipse class="cls-14" cx="700.5" cy="746.26" rx="66" ry="4.08"/><path class="cls-15" d="M385.76,648l1.32-.31,4.65,20a2.28,2.28,0,0,0,1.6,1.66l.06.13-2.13.5a.36.36,0,0,1-.23,0l-.07,0a1.71,1.71,0,0,1-.87-1.12l-4.7-20.28A.46.46,0,0,1,385.76,648Z"/><path class="cls-16" d="M410.44,641.07l-15.63,6.42-7,1.21,4.5,19.42a1,1,0,0,0,1.22.71h0a1,1,0,0,0,.79-.82l2.69-9.89,16.74-4.35"/><path class="cls-7" d="M400.06,645.33l-5.25,2.16-7,1.21,4.5,19.42a1,1,0,0,0,1.22.71h0a1,1,0,0,0,.79-.82l2.69-9.89,7.06-1.83"/><path class="cls-17" d="M398,658.17l-3.54,10.39a1.33,1.33,0,0,1-1,.94h0a1.36,1.36,0,0,1-1.54-1l-4.84-20.86,7.94-.26S394.38,654.39,398,658.17Z"/><path class="cls-18" d="M397.89,659.71a13.1,13.1,0,0,0-2.76-.82"/><path class="cls-18" d="M397.39,661.11a11.38,11.38,0,0,0-2.34-.65"/><path class="cls-18" d="M397.05,662.28a15.37,15.37,0,0,0-2.14-.59"/><path class="cls-15" d="M488.6,745.47V744.1l20.58-.06a2.3,2.3,0,0,0,2-1.2l.14,0V745a.35.35,0,0,1-.08.22l0,.06a1.77,1.77,0,0,1-1.29.6l-20.82.06A.46.46,0,0,1,488.6,745.47Z"/><path class="cls-19" d="M492.89,719.08l-2.76,17.45-.38,7.09,19.93-.06a1,1,0,0,0,1-1h0a1,1,0,0,0-.63-1l-9-4.82,5-18.07"/><path class="cls-7" d="M491.14,730.16l-1,6.37-.38,7.09,19.93-.06a1,1,0,0,0,1-1h0a1,1,0,0,0-.63-1l-9-4.82,1.64-5.9"/><path class="cls-17" d="M501.25,735.78l9.34,5.76a1.31,1.31,0,0,1,.69,1.2h0A1.37,1.37,0,0,1,510,744l-21.41.07,1.52-7.8S496.76,738.48,501.25,735.78Z"/><path class="cls-18" d="M502.73,736.24a12.67,12.67,0,0,0-1.42,2.51"/><path class="cls-18" d="M504,737a11.7,11.7,0,0,0-1.16,2.14"/><path class="cls-18" d="M505.05,737.63a15.39,15.39,0,0,0-1.06,2"/><path class="cls-20" d="M527.36,540.92V551s8.25,61.35,1.87,94.89C522.61,680.71,505.65,724,505.65,724H490.9s5.27-67.92,6.54-82.83c-.67-14.34-4.15-59.7-4.15-59.7s-14.26-21.91-.13-39.92"/><path class="cls-21" d="M493.77,724s6.28-60.72,8.2-80.12a34.66,34.66,0,0,0,.08-5.58c-1.14-16.62-4-56.83-4-56.83"/><path class="cls-20" d="M516.39,547.69s.12,22.53-1.93,32.5c-3,14.49-9.08,35.75-25.05,52.59-14.9,15.72-77.77,22.33-77.77,22.33L406.79,642s37.18-24.44,61.59-26c1.51-5.06,8.36-39.91,8.36-39.91s-.61-19.91,10.07-29.62a9.18,9.18,0,0,0,2.05-2.35l7.33-13.77"/><path class="cls-21" d="M527.36,551s-19.75,3.86-39.55-5.46"/><path class="cls-21" d="M518.32,551.78l1.91-.06a1.21,1.21,0,0,0,1.18-1.21v-4.07a1.22,1.22,0,0,0-1.16-1.21l-2.6-.11"/><path class="cls-7" d="M517.65,548.55a.79.79,0,1,0,.79-.79A.79.79,0,0,0,517.65,548.55Z"/><path class="cls-21" d="M516.39,551.76s.12,18.46-1.93,28.43c-2.27,11-7.39,28.68-18.05,44.12"/><path class="cls-21" d="M520.23,551.72c-.11,2.85-.22,5.69-.34,8.54-.19,4.78.86,9.35-4.33,11.61"/><line class="cls-21" x1="506.29" y1="550.76" x2="507.84" y2="544.66"/><line class="cls-21" x1="492.14" y1="547.38" x2="494.28" y2="540.92"/><path class="cls-21" d="M407.68,644.38s37.38-21.74,61.53-24.83a3.72,3.72,0,0,0,3.19-2.89c2-9.07,6.56-30.82,7.53-36.24a6.58,6.58,0,0,0,.06-1.88c-.43-3.78,1.25-24.49,12.15-31.16"/><polygon class="cls-22" points="403.53 643.27 407.42 640.89 412.95 655.79 408.43 656.47 403.53 643.27"/><polygon class="cls-22" points="490.13 726.2 490.13 721.72 507.22 721.73 506.21 726.2 490.13 726.2"/><path class="cls-21" d="M498.09,549.34a60.61,60.61,0,0,1-13.35,6.78"/><path class="cls-21" d="M529,561.8a65.25,65.25,0,0,1-4.44-10"/><path class="cls-19" d="M477.24,500S457.86,522,455.92,528.08s-6.28,41.07-6.28,41.07l10.09,1.24,11.42-37.23,25-24.14"/><path class="cls-19" d="M460.37,566.92c-.25,2.4-.47,6.86-.72,9.26-.15,1.41-.56,3.88-1.19,4-1.63.24-.24-3.79-1.07-3.66-.5.07-.72,3.13-.84,4.7-.11,1.4-.45,3.29-1.33,3.46-1.13.23-.46-7.63-.46-7.63s-1.05,8.24-2,8.38c-1.38.2-.34-8.09-.34-8.09s-1,7-2,7.16-.14-5-.14-7.12c-.36,1.52-.9,5.55-1.64,5.66s-.76-2.92-.68-3.66c.49-4.51,2.36-13.34,2.36-13.34"/><path class="cls-19" d="M540.19,497.89l13.2,13.79L586,496.51l5.85,7.42s-29.28,26.91-39,26.91c-7.61,0-32.77-19.16-32.77-19.16"/><path class="cls-19" d="M582.41,498.18c2.17-2,6.44-6.37,8.61-8.39,1.28-1.19,3.63-3.16,4.16-2.78,1.37,1-3,3.64-2.27,4.14.39.27,3.24-2.14,3.69-2.44a36.57,36.57,0,0,1,4.48-2.43,1.87,1.87,0,0,1,.89-.23.65.65,0,0,1,.62.57,1,1,0,0,1-.45.68l-5.57,4.54a1.83,1.83,0,0,1,1.77.66,1.12,1.12,0,0,1,.08,1.26,2,2,0,0,1,1.18.24,1.42,1.42,0,0,1,.37,1.22,4.18,4.18,0,0,1-.43,1.26,1,1,0,0,1,1.14.7,2.22,2.22,0,0,1,0,1.44,5.83,5.83,0,0,1-2.66,3.45c-.58.34-1.12.83-1.83.76a1.9,1.9,0,0,1-1.58-1.18A16.67,16.67,0,0,1,589,506.1"/><path class="cls-23" d="M588.57,499.35a11,11,0,0,0,3.54-6.68"/><path class="cls-24" d="M595.31,493.28a30.29,30.29,0,0,0-3.56,3.42.9.9,0,0,0,.18,1.34c1.77,1.49,4.65-.54,5.46-2.16.07-.13-.08-.32-.23-.22-.51.35-.93.81-1.41,1.2s-2.19,1.45-3,.92l-.59-.84.6-.64.9-1c.6-.65,1.13-1.35,1.71-2a0,0,0,1,0,0,0Z"/><path class="cls-24" d="M598.75,497.41a15.93,15.93,0,0,1-3.06,2.44,1.06,1.06,0,0,1-1.68-.63,8,8,0,0,0-.14-1.11.12.12,0,0,0-.2-.06c-.7.68-.06,2.2.78,2.49a2.14,2.14,0,0,0,1.88-.51,14,14,0,0,0,2.59-2.46.12.12,0,0,0-.17-.16Z"/><path class="cls-25" d="M506.29,488.1a22.35,22.35,0,0,0-21.85,3.84,142.51,142.51,0,0,0-16.06,16.4l15.51,14.17L501,506.89"/><path class="cls-25" d="M510.59,488.81s10.43-3,20.25,2.3S549,507.17,549,507.17l-14.12,15.34L517.94,511.7"/><path class="cls-25" d="M526.25,495.54c14.56,14.56,2.36,25.9,2.36,25.9l-1.25,23.12s-3.65,1.23-11,1a92.9,92.9,0,0,1-25.58-5S486.23,519.9,486,509c-.25-9.69,7.07-15.3,7.07-15.3L508.26,488Z"/><path class="cls-15" d="M514.44,454.61a6.54,6.54,0,0,1,2.93,1.13,10.1,10.1,0,0,0,2.28,1.13,12.45,12.45,0,0,1,4.76,3.55,10.41,10.41,0,0,1,2.3,7.85,13.25,13.25,0,0,0-.31,2.5c.08,2.13,1.46,2.39,2.94,3.72,1.68,1.51,3.3,3.37,3.32,5.75a6.64,6.64,0,0,1-4.21,6.26c-1.94.67-4.49,0-6.52-.14l-14.73-1.07c-4.05-.3-8.21-.9-12.28-.87-3,0-3.51-2.77-3.56-5.3a9.58,9.58,0,0,1,2-5.76,8.32,8.32,0,0,0,1.33-1.58,4.43,4.43,0,0,0,.36-1.73,32.48,32.48,0,0,1,.81-6.15,10.49,10.49,0,0,1,3-5.28,6.65,6.65,0,0,1,3.49-1.61,16.74,16.74,0,0,1,4,.08"/><path class="cls-19" d="M512.49,477.05l2,12.08s-.08,4.2-6.2,4.2a5.11,5.11,0,0,1-5.15-4l1.74-12.3"/><path class="cls-19" d="M502.07,459.88c-5.57,5.57-9.5,20.08-.71,21.79A12.76,12.76,0,0,0,516,473C518.61,464.68,507.63,454.31,502.07,459.88Z"/><path class="cls-15" d="M524,462c-1-3.94-3.56-7.37-7.51-8.4a15.09,15.09,0,0,0-5.52-.29,32.65,32.65,0,0,0-4.54,1.3c-1.52.41-2.83-.34-4.35-.23-2.93.22-6,2.71-4.6,5.86a7.07,7.07,0,0,0,3.16,3.12c3.49,1.95,7.65,2.26,11.65,2.32-.62,0-1,3.63-1,4.1a14.42,14.42,0,0,0,1,3.79,71.58,71.58,0,0,0,4.32,9.88c.13.25.33.53.6.49a.64.64,0,0,0,.35-.24,21.58,21.58,0,0,0,3.6-5.2c.7-1.41,1.85-2.88,2.29-4.38a7.4,7.4,0,0,0,0-2.44,8.63,8.63,0,0,1,.68-2.93A13,13,0,0,0,524,462Z"/><path class="cls-23" d="M504.1,482.36a11.82,11.82,0,0,0,7.32-2.27"/><path class="cls-19" d="M512,473.29a1.73,1.73,0,0,1,2.52.27c1,1.23.59,3.17-.31,4.49s-2.09,1.52-2.8,1.22-1-1.54-.56-2.81"/><path class="cls-15" d="M517.75,457.52c-2.12-.49-2.15-3-1.89-4.73a6.75,6.75,0,0,1,7.34-5.8c3.95.26,8.19,2.9,7.58,8.48-.54,4.91-8.27,6-11.83,3.14l-.37-.31"/><path class="cls-26" d="M515.79,453.42s5.29.47,8.52,6.62"/><line class="cls-21" x1="486.75" y1="519.89" x2="500.17" y2="507.52"/><path class="cls-21" d="M526.25,495.54c14.56,14.56,2.36,25.9,2.36,25.9"/><path class="cls-19" d="M345.51,495.15s-17.94,11-21.63,15.68c-9.2,11.68-22.27,50-22.27,50l9.82,4.63s23.32-38.31,24.9-39.18c6-3.29,26.55-10,26.55-10"/><path class="cls-27" d="M368.1,480.91c-14.05,3.1-36.94,21.16-36.94,21.16l22.89,28.22,18.31-12.7"/><path class="cls-15" d="M293.6,722.77,295,721l26.86,21.14a4,4,0,0,0,3.92.6l.22.11-2.22,2.83a.53.53,0,0,1-.34.19l-.12,0a3.07,3.07,0,0,1-2.37-.63l-27.19-21.41A.78.78,0,0,1,293.6,722.77Z"/><path class="cls-19" d="M316.42,685.67l-12.93,26.25-6.44,9.73,26,20.46a1.69,1.69,0,0,0,2.36-.29h0a1.67,1.67,0,0,0,.12-1.9l-7.43-16,16.65-24.6"/><path class="cls-28" d="M319,722.62l7.34,17.88a2.11,2.11,0,0,1-.28,2.28h0a2.32,2.32,0,0,1-3.06.29L295,721l8.72-9.42S310.1,721.24,319,722.62Z"/><path class="cls-18" d="M321,725.18a20.46,20.46,0,0,0-4.49,1.7"/><path class="cls-18" d="M321.89,727.57a18.3,18.3,0,0,0-3.76,1.49"/><path class="cls-18" d="M322.74,729.47a25.33,25.33,0,0,0-3.43,1.38"/><path class="cls-29" d="M375.7,578.28s-.63,66-5.66,80.56c-6.33,18.36-30.87,58.47-30.87,58.47l-33-17.26,27.23-51.65a15.54,15.54,0,0,0,1.78-7.71c-.24-8.32-.83-26.81-1.44-31.69-.65-5.2-2.67-9.58-4.42-14.43-3.54-9.76-7.09-21-5.55-31.51"/><path class="cls-21" d="M366.74,574.67s-.63,66-5.66,80.56c-6.33,18.37-30.29,57.69-30.29,57.69"/><path class="cls-15" d="M403.53,745.16v-2.23h34.18a4,4,0,0,0,3.45-2l.24,0v3.59a.54.54,0,0,1-.14.36l-.08.09a3.1,3.1,0,0,1-2.25,1H404.32A.78.78,0,0,1,403.53,745.16Z"/><path class="cls-19" d="M398.51,701.89l6.08,28.63,1,11.62h33.08a1.68,1.68,0,0,0,1.68-1.68h0a1.68,1.68,0,0,0-1.08-1.57l-15.73-8-2.13-29.62"/><path class="cls-28" d="M423.39,729.34l16.82,9.5a2.13,2.13,0,0,1,1.19,2h0a2.32,2.32,0,0,1-2.22,2.12H403.53l1-12.79S415.55,733.75,423.39,729.34Z"/><path class="cls-18" d="M426.54,730.11a20.71,20.71,0,0,0-2.48,4.11"/><path class="cls-18" d="M428.72,731.43a18.45,18.45,0,0,0-2,3.5"/><path class="cls-18" d="M430.57,732.4a25.47,25.47,0,0,0-1.85,3.21"/><path class="cls-29" d="M386.49,566.77l2.32,15.6s26.13,37.71,33.73,66c3.73,13.89,11.62,72.11,11.62,72.11h-38s-8.67-55-13.93-67.5-27.36-45-31.12-50.63c-14.81-11.46-18.14-31.47-10.5-50.09"/><path class="cls-21" d="M373.12,636.41l-20.7-32a13.89,13.89,0,0,0-2.78-3c-2.84-2.28-10.68-11-11.77-19.41"/><path class="cls-21" d="M379.69,566.77l1.88,12.62a13.31,13.31,0,0,0,2.08,5.4c5.84,8.77,25.64,39.58,32.1,63.62,3.73,13.89,11.62,72.11,11.62,72.11"/><line class="cls-21" x1="432.88" y1="711.32" x2="394.61" y2="711.32"/><path class="cls-21" d="M347.3,581l18.39.23s2.31,12.32,1.59,13c-1,1-6.2,5.9-8.11,5.9s-7.46-4.77-8.57-5.88S347.3,581,347.3,581Z"/><line class="cls-21" x1="366.19" y1="583.8" x2="347.82" y2="583.8"/><path class="cls-21" d="M325.48,579.27l5.45.63s1,12.49.25,13.12l-1.77,2.62"/><line class="cls-21" x1="331.16" y1="582.48" x2="325.97" y2="581.94"/><line class="cls-21" x1="343.44" y1="710.19" x2="309.97" y2="692.89"/><path class="cls-27" d="M376.07,477.21c-25.48,8.45-39.44,43.18-55.45,89.56,0,0,37.08,11.3,72.46,8.92-.59-20.05,1.69-67.33,1.69-67.33l-7.3-29"/><path class="cls-21" d="M341.26,514.53s12.12-24.34,29-34.51"/><path class="cls-19" d="M394.77,474.15l-3-16L382,466.63l-1.57,2.2-4.37,8.38s4.34,9.49,12.38,8.36a1.46,1.46,0,0,0,1.06-.79l5.26-10.63"/><path class="cls-19" d="M398.42,451.76c2.16,4.73,4.72,22.07,1.05,24.52s-10.3,1.39-13.16-1.22c-2.48-2.26-6.78-15.93-3.7-20S395.4,445.13,398.42,451.76Z"/><path class="cls-15" d="M378.5,453.53c2-6.22,5.66-7.3,11.1-7.3,4.93,0,10.19,0,14,3.27a3.23,3.23,0,0,1,1.38,2.94c-.26,1.95-2.3,3.2-4.08,3.55-2.59.52-5.15,1-7.71,1.72s-3.79,3.33-6.11,4.57c-.41.22-.85.4-1.24.65a3.89,3.89,0,0,0-1.71,2.42c-.17.74-.11,1.52-.27,2.26-.28,1.25-1.38,1.8-2.36,2.45-.77.51-2.42,1.36-2.42,1.36s-3-5-3-9.75C376.07,459.21,376.66,455.37,378.5,453.53Z"/><path class="cls-23" d="M392.49,477.91s-5.4-.51-7-4.29"/><path class="cls-19" d="M386.64,464.59c-.63-.8-1.43-1.68-2.37-1.61a1.69,1.69,0,0,0-1.19.73,4.8,4.8,0,0,0,1.08,6.67c.9.59,2,.73,2.6-.38l.13-4.82A.8.8,0,0,0,386.64,464.59Z"/><path class="cls-23" d="M383.2,469.51s1.63,1.73,3.29.88"/><path class="cls-19" d="M402.47,501.4s9.69,25.45,11.13,27.51c1.71,2.43,31.16,31.5,31.16,31.5l-5.38,10.79S401.91,549.31,397,543.07c-4.57-5.8-12.28-25.82-12.28-25.82"/><path class="cls-27" d="M371,482.61c8.33-3.74,19.11-3.13,28.42,11.95,6.21,10.06,14.23,26.55,14.23,26.55L384.74,536l-15.23-31.66"/><polyline class="cls-21" points="371.76 509.02 384.74 535.99 413.6 521.11"/><path class="cls-21" d="M383.31,481.12a20.4,20.4,0,0,0-11.17,1"/><line class="cls-21" x1="411.16" y1="516.21" x2="382.26" y2="530.84"/><path class="cls-19" d="M442.72,558.4a19.87,19.87,0,0,0,7.68,4.26s-.12,2.09-.18,2.52a29.71,29.71,0,0,0,5.59,2.74c1.82.61,4.21,1.65,4.13,2.66-.11,1.3-10.31-2.22-10.31-2.22s10.58,4.07,10.42,5.15c-.22,1.56-10.88-2.51-10.88-2.51s9,3.6,8.8,4.75-6.68-1.61-9.52-2.38c1.9.94,7.07,3,6.95,3.79s-4.15-.21-5.12-.57c-5.81-2.13-16.4-8.65-16.4-8.65"/><path class="cls-19" d="M277.29,698.41l1.86,33.29s17.09,11.81,17.09,12-15.76.78-15.76.78l-7-3.41H261.94a1.24,1.24,0,0,1-1.21-1.52l1.42-6.23-4.76-26.61"/><path class="cls-15" d="M295.1,741.39c-2.48-1.44-11-6.84-11-6.84l-10.51,6.54H260.38v4.85H274V743h1.19a1.38,1.38,0,0,1,.83.28l3,2.24a2.06,2.06,0,0,0,1.19.39h16.08C298.41,745.94,298.9,743.6,295.1,741.39Z"/><polygon class="cls-15" points="270.05 742 261.29 736.6 261.76 734.55 271.26 741.1 270.05 742"/><path class="cls-19" d="M215.32,679l-23.8,23.35s2.38,20.64,2.23,20.77-11-11.33-11-11.33l-2-7.5-7.62-8.69a1.24,1.24,0,0,1,.34-1.91l5.62-3,16.87-21.12"/><path class="cls-15" d="M194.75,720.75c-.55-2.81-2.14-12.82-2.14-12.82l-11.84-3.58-8.69-9.9-3.65,3.21,9,10.21,2.19-1.92.78.89a1.37,1.37,0,0,1,.34.81l.29,3.72a2,2,0,0,0,.48,1.15l10.61,12.09C193.51,726.24,195.59,725.06,194.75,720.75Z"/><polygon class="cls-15" points="177.76 702.32 176.05 692.18 177.91 691.18 179.24 702.64 177.76 702.32"/><path class="cls-28" d="M260.54,561.69s18.71,53.67,21.1,76.62,4.49,82.21,4.49,82.21H251.77s-4.79-74.92-8-86.38c-1.78-6.29-3.94-17.94-8.2-38.46-5.73-14.65-8.6-20.17-5.93-32.32"/><path class="cls-28" d="M246.26,561.11s0,17.13,1.5,25.12c2,8.5,12.64,38.67,6.93,54.74s-48.11,60-48.11,60L187.87,677.3l35.58-46.54-9.18-36.71s-9-16-.6-32.36"/><path class="cls-21" d="M246.26,570.05a100.36,100.36,0,0,0,1.5,16.18c2,8.5,12.64,38.67,6.93,54.74-1.32,3.7-4.42,8.69-8.42,14.16"/><path class="cls-19" d="M257.76,549.72l2.78,12c-17.7,6.33-46.87,0-46.87,0L222.88,541"/><path class="cls-21" d="M190.73,680.93l35.82-44.14A7,7,0,0,0,228,631l-6.87-35.21a13.94,13.94,0,0,0-1-3.11c-1.91-4.18-4.43-18-2.41-24.62"/><path class="cls-21" d="M262.28,566.77s-15.24,8.36-50.69,0"/><path class="cls-21" d="M251.09,569.79l1.7-.24a.88.88,0,0,0,.84-1l-.77-4a1,1,0,0,0-1.14-.71l-4.05.33"/><path class="cls-21" d="M260.54,561.69c-17.7,6.33-46.87,0-46.87,0"/><ellipse class="cls-30" cx="249.82" cy="566.84" rx="1.49" ry="1.24"/><line class="cls-21" x1="237.11" y1="564.51" x2="236.39" y2="570.39"/><line class="cls-21" x1="221.89" y1="563.1" x2="220.22" y2="568.56"/><path class="cls-21" d="M228.11,569.79a14.28,14.28,0,0,1-10.92,9.3"/><path class="cls-21" d="M249.82,570s.83,13,.83,14.57c0,1.9-2.61,2.85-2.61,2.85"/><path class="cls-21" d="M264.61,573.78a11.5,11.5,0,0,1-8.26-4.63"/><line class="cls-21" x1="256.89" y1="720.52" x2="250.4" y2="649.12"/><path class="cls-19" d="M311.43,565.44l-4.55,8.9s-5.81,2.67-6,2.5-3.78-4-3.78-4.21,5-13.44,5-13.44"/><path class="cls-19" d="M262.68,501.52l10.65,32.26,26,30.24-6.28,6s-30.78-22.5-35.46-28.89-16.71-39.76-16.71-39.76"/><path class="cls-19" d="M297.1,562.31c1.87,1.49,5.45,4.11,7.31,5.6,1.1.89,2.94,2.53,2.7,3-.61,1.2-3.25-1.94-3.56-1.33-.19.37,2.24,2.21,3.48,3.16s2.5,2.12,2.21,2.79c-.38.87-6.55-3.93-6.55-3.93s6.3,5.26,5.94,6c-.52,1-6.87-4.26-6.87-4.26s5.3,4.56,4.92,5.31-4.2-2.67-6-3.86c1.08,1.09,4.16,3.67,3.88,4.22s-2.8-1.11-3.38-1.58c-3.49-2.82-9.87-8.95-9.87-8.95"/><path class="cls-19" d="M309.07,570.05c-.72,1.8-1.25,3.57-2.12,5.3-.22.44-.65.94-1.09.74s-.36-.75-.27-1.19c.17-.86.62-2.95.62-2.95"/><path class="cls-19" d="M300.46,576.84c1.16-.65,2.33-1.28,3.52-1.9a1.66,1.66,0,0,1,.61-.22.58.58,0,0,1,.56.27.76.76,0,0,1-.09.68,5.39,5.39,0,0,1-3,2.15,2.11,2.11,0,0,1-.89.17.72.72,0,0,1-.66-.52"/><path class="cls-19" d="M299.31,576c1-.83,2.18-1.41,3.24-2.21a1.7,1.7,0,0,1,.57-.32.58.58,0,0,1,.6.16.76.76,0,0,1,0,.69,5.38,5.38,0,0,1-2.61,2.63,2,2,0,0,1-.84.32,1,1,0,0,1-1.19-1.17"/><path class="cls-19" d="M298.34,574.85c1-.84,1.69-1.28,2.75-2.08a1.57,1.57,0,0,1,.56-.32.57.57,0,0,1,.6.16.73.73,0,0,1,0,.69,5.38,5.38,0,0,1-2.61,2.63,2,2,0,0,1-.84.32c-.3,0-1.07,0-.91-1.27"/><path class="cls-19" d="M297.13,573.85c1-.91,1.4-1.38,2.4-2.26a1.8,1.8,0,0,1,.55-.36.57.57,0,0,1,.6.13.74.74,0,0,1,.08.68,5.43,5.43,0,0,1-2.42,2.81,2,2,0,0,1-.82.38c-.3,0-1.25-.29-.72-1.68"/><path class="cls-31" d="M247.15,488.81S258.87,490,265.69,499c6.07,8,9.38,26.13,9.38,26.13l-12.65,9.5L251.64,516.5"/><path class="cls-31" d="M259,503.45c8.89,13.68,8.89,50.15,8.89,50.15s-23.18,8.41-58.3-.91c0,0,7.32-37.64,10.79-41s24.07-26,24.07-26l11.89,9.49Z"/><path class="cls-19" d="M201.35,578.37c0,2.39.12,6.82.09,9.21,0,1.41-.18,3.87-.69,4-1.33.26-.48-3.76-1.15-3.62-.41.08-.37,3.12-.35,4.69,0,1.39-.13,3.27-.84,3.45-.91.24-.94-7.58-.94-7.58s-.25,8.21-1,8.36c-1.12.22-.88-8-.88-8s-.32,7-1.15,7.15-.49-5-.65-7.07c-.18,1.52-.32,5.53-.93,5.65s-.84-2.89-.83-3.63c.07-4.49,1-13.29,1-13.29"/><path class="cls-19" d="M209.84,508.6S200,528.92,198.1,533.49c-5.46,13.17-5.27,45.47-5.27,45.47l8.38.17s9.21-37,10.15-38.14c3.55-4.43,15.49-23,15.49-23"/><path class="cls-31" d="M242.45,488.81s-17.5.69-27,7.66S198,525.22,198,525.22l24.69,10.69,9.87-21.38"/><polyline class="cls-21" points="232.59 514.53 222.72 535.91 198.03 525.22"/><path class="cls-19" d="M245.66,476.41l-5.85,10.51s-.33,4.67,5.32,6.71c4,1.46,5.1-2.72,5.1-2.72l2.49-12"/><path class="cls-19" d="M258.64,462.85c4.36,6.39,6.5,21.31-2.3,21.35a12.52,12.52,0,0,1-12.53-11.06C242.8,464.65,254.29,456.46,258.64,462.85Z"/><path class="cls-15" d="M241.37,455.19a12.38,12.38,0,0,1,13.39,1.58c2.88,0,6.91,1.64,8.28,5.58a6.85,6.85,0,0,1-1.34,7.33c-.31-1.08-1.88-5.26-3.42-6.61a31.09,31.09,0,0,0-4.51,4.64,38.91,38.91,0,0,0-3.87,6.43c-1.13,2.35-2.5,4.57-3.74,6.87a27.64,27.64,0,0,1-4.63,6.55,26.16,26.16,0,0,1-10.28,6c-3.78,1.3-7.73,2.05-11.62,3-2.52.59-5.12,1.29-7.12,2.93a24.76,24.76,0,0,0-3.89,4.52,16.74,16.74,0,0,1,0-10.55c1-2.95,3.06-4,3.64-5.17,1.38-2.85.36-3.89.8-6.95a10.05,10.05,0,0,1,3.75-6.37c2.43-1.92,5.43-2.29,8.38-2.81a16.76,16.76,0,0,0,7.21-2.84c2-1.5,2.14-5.53,3.15-7.73A13.68,13.68,0,0,1,241.37,455.19Z"/><path class="cls-19" d="M251.64,474.39a2.25,2.25,0,0,0-2.71-1.08c-1.56.57-2,2.48-1.67,4.1a2.78,2.78,0,0,0,2.34,2.53c.86.11,1.71-.83,1.82-2.17"/><path class="cls-21" d="M266.55,531.48s-1.29-20.88-4.27-27"/><path class="cls-19" d="M795.58,496.64a17.14,17.14,0,0,0,8.39-9.48,8.07,8.07,0,0,0,.52-2.46,5.18,5.18,0,0,0-6.19-5.2c-2,.4-3.59,1.94-4.89,3.53s-2.35,3.3-1.92,5.15"/><path class="cls-19" d="M754,500l10.27,14.56,24.29-27.39,10.55,7s-17.9,47.4-34.84,47.4c-12.65,0-30.29-30.77-30.29-30.77"/><path class="cls-31" d="M716.19,479.42s15.94-2.17,26.62,5.77,21.5,26.24,21.5,26.24l-31.44,18.86-16.68-22.77"/><path class="cls-17" d="M792.08,468.41c2,2.66,7.33,7.6,9.91,9.7,1.81,1.47,4.25,2.47,5.86,4.16,1.28,1.33.82,1.7-.53,2.74a24.64,24.64,0,0,1-5.94,3.34,1.78,1.78,0,0,1-2.19-.24,23,23,0,0,1-3.79-3.78c-2.9-3.47-8.58-9.67-11-13.51"/><path class="cls-7" d="M778.66,474.54a5.64,5.64,0,1,0,.53-8.27A5.86,5.86,0,0,0,778.66,474.54Z"/><path class="cls-32" d="M789.14,476.18l6.56-5.07-10.43-13.26-6.88,6a1.81,1.81,0,0,0-.16,2.35c2.33,4.16,4.88,7.62,8.56,9.82C787.59,476.49,788.45,476.78,789.14,476.18Z"/><path class="cls-17" d="M788,466.56c2.95,3.62,6.47,5.63,7.86,4.5s.13-5-2.82-8.61-6.47-5.64-7.86-4.5S785,462.94,788,466.56Z"/><path class="cls-7" d="M817.05,464.22s-14.27,2.87-21.3,5.64c-2.57.59-5.43-2.46-6.89-4.28-3.75-4.69-3.24-6.69-3.24-6.69,5.65-6.75,10.2-20.64,10.2-20.64"/><path class="cls-32" d="M801.49,455.28c6.88,8.41,16.16,12.2,20.74,8.47s2.7-13.59-4.18-22-16.16-12.21-20.74-8.47S794.61,446.86,801.49,455.28Z"/><path class="cls-17" d="M803.51,453.67c5.82,7.12,13.47,10.49,17.1,7.52s1.85-11.13-4-18.25-13.48-10.48-17.1-7.52S797.69,446.56,803.51,453.67Z"/><path class="cls-33" d="M813.91,450.28a42.24,42.24,0,0,0-6.87,7.07,30.26,30.26,0,0,1-3.53-3.68,31.21,31.21,0,0,1-2.9-4.19,42.58,42.58,0,0,0,8.29-5.33Z"/><path class="cls-7" d="M809.74,448.58c1.39,1.71,3.27,2.49,4.2,1.73s.54-2.75-.86-4.46-3.28-2.48-4.2-1.73S808.34,446.87,809.74,448.58Z"/><path class="cls-19" d="M787,490.38a20.13,20.13,0,0,1,4.42-11c2.27-2.64,4.52-5,8-4.62.47,0,1.06.28,1,.75a1,1,0,0,1-.49.69,9.11,9.11,0,0,0-3.71,4.9,21.78,21.78,0,0,0-.26,3.24,10.3,10.3,0,0,1-3.87,7.21"/><path class="cls-19" d="M806,480.78a4.64,4.64,0,0,0,0-1.89,2.26,2.26,0,0,0-.67-.81,1.11,1.11,0,0,0-.89-.18,2.73,2.73,0,0,0-.86.37,4.84,4.84,0,0,0-2.41,3.19.53.53,0,0,0,0,.25.44.44,0,0,0,.14.16,2.15,2.15,0,0,0,1.22.38c1,0,2.66-1.65,2.78-1.91"/><path class="cls-19" d="M804.51,479.18a5.5,5.5,0,0,0-.28-2.05,1.65,1.65,0,0,0-.44-.73,1.11,1.11,0,0,0-.89-.18,2.73,2.73,0,0,0-.86.37,4.81,4.81,0,0,0-2.41,3.19.53.53,0,0,0,0,.25.36.36,0,0,0,.14.16,1.41,1.41,0,0,0,1.22.15,4,4,0,0,0,1.12-.58l1.17-.77a1.57,1.57,0,0,0,.61-.59"/><path class="cls-19" d="M802.92,477.5a5.51,5.51,0,0,0-.29-2.05,1.55,1.55,0,0,0-.43-.73,1.13,1.13,0,0,0-.89-.18,2.64,2.64,0,0,0-.86.37A4.79,4.79,0,0,0,798,478.1a.36.36,0,0,0,0,.25.36.36,0,0,0,.14.16,1.41,1.41,0,0,0,1.22.15,4,4,0,0,0,1.12-.58l1.16-.77a1.57,1.57,0,0,0,.61-.59"/><path class="cls-19" d="M801.33,475.82a5.69,5.69,0,0,0-.29-2.05,1.55,1.55,0,0,0-.43-.73,1.14,1.14,0,0,0-.9-.18,2.73,2.73,0,0,0-.86.37,4.85,4.85,0,0,0-2.41,3.19.53.53,0,0,0,0,.25.39.39,0,0,0,.15.16,1.41,1.41,0,0,0,1.22.15,4.27,4.27,0,0,0,1.12-.58l1.16-.77a1.57,1.57,0,0,0,.61-.59"/><path class="cls-15" d="M707.21,745.3v-1.82h27.94a3.28,3.28,0,0,0,2.81-1.6l.21,0v2.94a.4.4,0,0,1-.12.29l-.07.08a2.51,2.51,0,0,1-1.84.79H707.85A.64.64,0,0,1,707.21,745.3Z"/><path class="cls-19" d="M709.58,709.94l-1.5,23.39.77,9.51h27a1.38,1.38,0,0,0,1.38-1.38h0a1.37,1.37,0,0,0-.89-1.28l-12.94-7.81,4.82-22.92"/><path class="cls-34" d="M723.44,732.37l13.75,7.77a1.74,1.74,0,0,1,1,1.61h0a1.9,1.9,0,0,1-1.82,1.73H707.21l.84-10.45S717,736,723.44,732.37Z"/><path class="cls-18" d="M726,733a16.7,16.7,0,0,0-2,3.36"/><path class="cls-18" d="M727.8,734.08a14.87,14.87,0,0,0-1.66,2.86"/><path class="cls-18" d="M729.31,734.87a21.21,21.21,0,0,0-1.51,2.62"/><path class="cls-15" d="M658.13,745.3v-1.82h27.94a3.28,3.28,0,0,0,2.81-1.6l.2,0v2.94a.44.44,0,0,1-.11.29l-.07.08a2.51,2.51,0,0,1-1.84.79H658.77A.63.63,0,0,1,658.13,745.3Z"/><path class="cls-19" d="M660.5,709.94,659,733.33l.78,9.51h27a1.37,1.37,0,0,0,1.37-1.38h0a1.37,1.37,0,0,0-.88-1.28l-12.94-7.81,4.82-22.92"/><path class="cls-34" d="M674.36,732.37l13.75,7.77a1.73,1.73,0,0,1,1,1.61h0a1.9,1.9,0,0,1-1.82,1.73H658.13L659,733S668,736,674.36,732.37Z"/><path class="cls-18" d="M676.93,733a17.13,17.13,0,0,0-2,3.36"/><path class="cls-18" d="M678.72,734.08a14.36,14.36,0,0,0-1.66,2.86"/><path class="cls-18" d="M680.23,734.87a21.21,21.21,0,0,0-1.51,2.62"/><path class="cls-35" d="M716.11,562s2.46,18.92,0,36.19S682.9,725,682.9,725H650.16l18.15-123.91s-1.39-18.81,9.75-34.81"/><path class="cls-35" d="M742,566.27s1.43,25.4.44,53.32c-1.63,46.25-9.41,105.4-9.41,105.4H702l1.5-120.48s-6.5-28.39-.2-41.43"/><path class="cls-21" d="M702.93,653.59s10.78-54.35,14.27-77.15"/><path class="cls-21" d="M720,576.44l-2.36,14.24a3.68,3.68,0,0,1-2.26,2.6l-1,.4"/><line class="cls-21" x1="685.04" y1="717.31" x2="651.29" y2="717.31"/><path class="cls-21" d="M655.21,725l20.58-124.35s-1.25-17.27,6.17-27.32"/><path class="cls-21" d="M694.55,576.52s-3,5.89-5.83,6.85-12,3.11-12,3.11"/><path class="cls-21" d="M742.25,586.48s-7.29-2.14-9.35-3.11c-2.62-1.22-2.84-8-2.84-8"/><line class="cls-21" x1="702.08" y1="717.31" x2="734.02" y2="717.31"/><path class="cls-36" d="M706.58,725s3.49-94.17,3.49-107"/><path class="cls-31" d="M727.31,483.42s13,9.82,14.94,36c1.88,25.27,2.4,55.28,2.4,55.28-30.55,9.56-76-.33-76-.33s8-66.66,20.42-86.36l22.23-10.07Z"/><path class="cls-19" d="M691.56,513.56s-9.23,12.16-19.59,26c-8.17,11-44.72,36.93-44.72,36.93L621,565.59l29.35-35.92,22.13-31.51"/><path class="cls-19" d="M622.52,564.44c-2.27,1.79-6.64,4.86-8.91,6.65-1.34,1-3.58,3-3.27,3.76.8,1.82,4-2.17,4.39-1.24.25.56-2.71,2.74-4.22,3.87-1.35,1-3,2.55-2.66,3.56.49,1.3,8-4.4,8-4.4s-7.68,6.33-7.21,7.4c.68,1.54,8.42-4.81,8.42-4.81s-6.45,5.52-6,6.66,5.14-3,7.31-4.4c-1.32,1.34-5.06,4.46-4.69,5.29s3.44-1.08,4.15-1.64c4.25-3.38,12-10.94,12-10.94"/><path class="cls-23" d="M623.78,568.69s-2.51,3.76-6,3.9"/><path class="cls-31" d="M708.45,479.25S687.73,478,678.73,487a90.63,90.63,0,0,0-14.8,20.49l22.64,19.1,12-21"/><line class="cls-21" x1="686.57" y1="526.62" x2="699.28" y2="508.34"/><path class="cls-21" d="M722.78,479.19c-.42.42,1,6.86-9.11,6.86-9.73,0-12.26-6.63-12.26-6.63"/><line class="cls-21" x1="742.89" y1="524.28" x2="740.25" y2="497.27"/><path class="cls-19" d="M719.32,468.46,708.76,456l-4.25,12.24-.27,2.69.38,9.45s8.48,6.07,14.9,1.09a1.47,1.47,0,0,0,.52-1.21l-.72-11.84"/><path class="cls-19" d="M716.92,447.27c3.48,3.87,10,17.43,7.08,22.79-2.63,4.85-8.13,4.7-11.63,3.07-3-1.42-11.25-13.16-9.53-17.93S712.05,441.85,716.92,447.27Z"/><path class="cls-15" d="M703.65,447.21c1.16-2.85,4.45-4.54,7.73-4.74,1.67-.11,10.9,1.44,11.4,8.13l-11.72,2.95c-.66,3.44-1.21,8.23-2.68,11.41-.17.35-3.59,7.22-4,6.86-7.08-4.58-10.75-10.41-8.89-16C696.49,452.8,698.93,448,703.65,447.21Z"/><path class="cls-23" d="M719.12,474s-5,.59-8-2"/><path class="cls-19" d="M709.54,463c-.84-.57-1.88-1.17-2.75-.82a1.71,1.71,0,0,0-.92,1.06,4.81,4.81,0,0,0,3,6c1,.28,2.16.07,2.36-1.15L710,463.54C709.93,463.32,709.72,463.17,709.54,463Z"/><path class="cls-23" d="M707.73,468.77s2.07,1.16,3.4-.14"/><path class="cls-37" d="M710.85,463.39a4.14,4.14,0,0,1,4.2-4,4,4,0,0,1,4.1,4,4.14,4.14,0,0,1-4.2,4A4,4,0,0,1,710.85,463.39Z"/><path class="cls-38" d="M718.66,459.9c0,.46.23.83.44.81s.36-.4.33-.87-.22-.82-.44-.81S718.63,459.44,718.66,459.9Z"/><path class="cls-38" d="M722.62,464.23a1.56,1.56,0,0,1-1.75-.44c-.12-.14-.33.07-.21.21a1.85,1.85,0,0,0,2,.51c.18-.06.1-.34-.07-.28Z"/><path class="cls-38" d="M718,456.29c0,.31.56.48,1.12.38s1-.44.92-.75-.56-.48-1.12-.38S717.9,456,718,456.29Z"/><polygon class="cls-19" points="720.89 455.09 721.56 455.76 726.47 460.83 723.48 462.45 720.89 455.09"/><polyline class="cls-37" points="721.56 455.76 726.47 460.83 723.48 462.45"/><path class="cls-39" d="M829.78,423.12a6.88,6.88,0,1,0,3.43,9.11A6.89,6.89,0,0,0,829.78,423.12Z"/><path class="cls-40" d="M843.15,425.31a2.49,2.49,0,1,0,1.25,3.3A2.48,2.48,0,0,0,843.15,425.31Z"/><path class="cls-41" d="M853.14,410.75a3.57,3.57,0,1,0,1.78,4.73A3.58,3.58,0,0,0,853.14,410.75Z"/><path class="cls-40" d="M853.37,422.41a2.87,2.87,0,1,0,1.31,3.74A2.8,2.8,0,0,0,853.37,422.41Z"/><path class="cls-41" d="M847.37,400.41a2.87,2.87,0,1,0,1.31,3.74A2.8,2.8,0,0,0,847.37,400.41Z"/><path class="cls-41" d="M862,404.31a4.14,4.14,0,1,0-4.08,4A4,4,0,0,0,862,404.31Z"/><path class="cls-40" d="M839,407.79a4.52,4.52,0,1,0,2.25,6A4.51,4.51,0,0,0,839,407.79Z"/><path class="cls-42" d="M504.7,470.18c-.09.41-.33.71-.52.67s-.28-.43-.18-.84.32-.72.51-.67S504.79,469.76,504.7,470.18Z"/><path class="cls-42" d="M499.17,468.8c-.09.41-.33.71-.52.67s-.28-.43-.18-.84.32-.72.51-.67S499.26,468.38,499.17,468.8Z"/><path class="cls-43" d="M500.33,473.75a1.74,1.74,0,0,0,2-.17c.14-.11-.06-.32-.21-.2a1.43,1.43,0,0,1-1.62.11c-.16-.09-.31.17-.15.26Z"/><path class="cls-44" d="M511.92,474.77a3.89,3.89,0,0,0-3.29-4.29,3.65,3.65,0,0,0-4.32,3,3.91,3.91,0,0,0,3.3,4.29A3.63,3.63,0,0,0,511.92,474.77Z"/><polygon class="cls-44" points="501.34 466.47 502.35 466.64 501.59 472.05 499.17 471.64 501.34 466.47"/><path class="cls-42" d="M505.85,467c-.1.27-.58.34-1.09.16s-.83-.55-.73-.82.58-.35,1.08-.17S505.94,466.73,505.85,467Z"/><path class="cls-42" d="M500.38,465.54c.05.29-.33.58-.85.65s-1-.11-1-.4.32-.58.84-.65S500.32,465.25,500.38,465.54Z"/><path class="cls-37" d="M388.5,467.19a4.14,4.14,0,0,1,5.18-2.61,4,4,0,0,1,2.76,5,4.13,4.13,0,0,1-5.18,2.6A4,4,0,0,1,388.5,467.19Z"/><path class="cls-38" d="M397,466.12c-.1.45,0,.85.19.9s.46-.28.57-.73,0-.86-.19-.91S397.09,465.66,397,466.12Z"/><path class="cls-38" d="M399.51,471.41a1.57,1.57,0,0,1-1.54-.93c-.08-.17-.33,0-.25.15a1.83,1.83,0,0,0,1.79,1.07c.19,0,.19-.3,0-.29Z"/><path class="cls-38" d="M397.36,462.46c0,.31.4.62,1,.68s1.06-.13,1.09-.44-.4-.62-1-.69S397.39,462.14,397.36,462.46Z"/><polygon class="cls-19" points="400.51 462.16 400.96 463 404.19 469.28 400.86 469.96 400.51 462.16"/><polyline class="cls-37" points="400.96 463 404.19 469.28 400.86 469.96"/><path class="cls-37" d="M249.79,475.11a4,4,0,0,1,5.05-2.54,3.91,3.91,0,0,1,2.68,4.89,4,4,0,0,1-5,2.53A3.9,3.9,0,0,1,249.79,475.11Z"/><path class="cls-38" d="M258.05,474.07c-.1.44,0,.84.18.88s.46-.27.56-.71,0-.83-.18-.88S258.16,473.63,258.05,474.07Z"/><path class="cls-38" d="M260.51,479.23a1.52,1.52,0,0,1-1.5-.91c-.08-.17-.33,0-.25.15a1.78,1.78,0,0,0,1.75,1c.18,0,.18-.3,0-.29Z"/><path class="cls-38" d="M258.42,470.51c0,.3.39.6.94.67s1-.13,1.07-.44-.39-.6-.94-.67S258.46,470.2,258.42,470.51Z"/><polygon class="cls-19" points="261.5 470.23 261.93 471.04 265.07 477.16 261.82 477.82 261.5 470.23"/><polyline class="cls-37" points="261.93 471.04 265.07 477.16 261.82 477.82"/></g></g></g></svg>