<svg id="Layer_1" data-name="Layer 1" xmlns="http://www.w3.org/2000/svg" viewBox="0 0 307.31 310.72"><title>black</title><path d="M41.76,303.41a23,23,0,0,1-17.12,7.31,23.69,23.69,0,0,1-17.33-7.31A23.65,23.65,0,0,1,0,286.08v-246A23,23,0,0,1,7.31,23a24,24,0,0,1,17.33-7.1A23.36,23.36,0,0,1,41.76,23a23.36,23.36,0,0,1,7.1,17.12V157.05H30.48V38.45a6,6,0,0,0-1.67-4,5.6,5.6,0,0,0-8.35,0,6,6,0,0,0-1.67,4v249.3a5.72,5.72,0,0,0,5.85,5.85,5.72,5.72,0,0,0,5.84-5.85V169.16H48.86V286.08A24,24,0,0,1,41.76,303.41Z"/><path d="M102.72,23a23.36,23.36,0,0,1,7.1,17.12v246a23.84,23.84,0,0,1-7.1,17.54,23.34,23.34,0,0,1-17.12,7.1,24,24,0,0,1-17.33-7.1A23.48,23.48,0,0,1,61,286.08v-246A23,23,0,0,1,68.27,23,24,24,0,0,1,85.6,15.9,23.34,23.34,0,0,1,102.72,23ZM89.78,34.48a5.6,5.6,0,0,0-8.35,0,6.39,6.39,0,0,0-1.67,4.39V287.75a5.72,5.72,0,0,0,5.84,5.85,5.72,5.72,0,0,0,5.85-5.85V38.87A6.44,6.44,0,0,0,89.78,34.48Z"/><path d="M163.69,24.67a23.36,23.36,0,0,1,7.1,17.12V284.41a23.84,23.84,0,0,1-7.1,17.54,23.36,23.36,0,0,1-17.12,7.1H121.93V17.57h24.64A23.36,23.36,0,0,1,163.69,24.67ZM150.74,36a5.66,5.66,0,0,0-4.17-1.67h-5.85V292.34h5.85a5.32,5.32,0,0,0,4.17-1.88,6.4,6.4,0,0,0,1.68-4.38v-246A5.67,5.67,0,0,0,150.74,36Z"/><path d="M201.69,171.66V292.34h11.69V183.77h18.37V309.05H182.9V17.57h48.85V142.85H213.38V34.28H201.69V155h30.06v16.7Z"/><path d="M305,19.46,275.77,2.68,246.56,19.46V53.88l29.21,16.78L305,53.88Zm-7.69,1.48L275.77,33.3,254.25,20.94,275.77,8.58Zm-45.62,4.42,21.54,12.37V63.29L251.67,50.92Zm26.66,37.93V37.73l21.54-12.37V50.92Zm0,0"/><path d="M275.77,73.34,244.23,55.22V18.11L275.77,0l31.54,18.11V55.22Zm-26.89-20.8L275.77,68l26.89-15.44V20.8L275.77,5.36,248.88,20.8ZM276,67.3V36.39l26.18-15V52.26Zm4.64-28.22v20.2l16.89-9.71V29.37ZM275.53,67.3l-26.18-15V21.35l26.18,15ZM254,49.57l16.89,9.71V39.08L254,29.37ZM275.77,36l-26.19-15,26.19-15,26.19,15Zm-16.86-15,16.86,9.68,16.86-9.68-16.86-9.68Z"/></svg>