<?xml version="1.0" encoding="utf-8"?>
<!-- Generator: Adobe Illustrator 16.0.0, SVG Export Plug-In . SVG Version: 6.00 Build 0)  -->
<!DOCTYPE svg PUBLIC "-//W3C//DTD SVG 1.1//EN" "http://www.w3.org/Graphics/SVG/1.1/DTD/svg11.dtd">
<svg version="1.1" id="Layer_1" xmlns="http://www.w3.org/2000/svg" xmlns:xlink="http://www.w3.org/1999/xlink" x="0px" y="0px"
	 width="1279.212px" height="1080px" viewBox="0 0 1279.212 1080" enable-background="new 0 0 1279.212 1080" xml:space="preserve">
<g>
	<defs>
		<rect id="SVGID_1_" width="1279.212" height="1080"/>
	</defs>
	<clipPath id="SVGID_2_">
		<use xlink:href="#SVGID_1_"  overflow="visible"/>
	</clipPath>
	<g clip-path="url(#SVGID_2_)">
		<defs>
			<path id="SVGID_3_" d="M749.559,186.326c-19.777,23.865-31.12,55.198-55.23,74.459c-33.465,26.733-94.454,15.302-122.839-16.987
				c-29.694-33.78-94.868-47.972-129.442-14.98c-16.285,15.539-26.449,36.214-38.549,55.195
				c-12.101,18.981-27.686,37.487-49.168,44.211c-11.968,3.745-24.859,3.316-37.726,2.887c-16.178-0.54-32.321-1.08-46.546,6.677
				c-18.492,10.086-28.863,37.166-30.112,56.991c-1.131,17.936,1.256,36.364-3.783,53.615
				c-8.695,29.765-37.383,49.564-49.746,78.002c-10.659,24.521-8.024,52.636-3.279,78.949c4.744,26.315,11.431,52.902,8.236,79.448
				c-3.467,28.805-18.225,54.805-28.412,81.971c-8.055,21.482-12.55,44.464-7.569,67.177c1.724,7.854,2.448,47.837,14.673,47.837
				h11.205h68.171h118.622h155.822h179.774h190.479h187.935h172.142h24.997V505.741c-7.098,0.104-14.143-0.625-21.068-2.61
				c-22.886-6.563-30.239-31.639-27.344-55.754c4.043-33.714-7.472-69.044-30.489-93.55c-23.02-24.505-57.088-37.703-90.214-34.948
				c-30.39,2.524-60.688,17.589-90.211,9.812c-29.351-7.736-48.975-36.074-60.802-64.596
				c-11.826-28.521-18.743-59.544-35.649-85.255c-17.823-27.111-45.828-38.587-75.121-38.584
				C811.537,140.259,772.732,158.358,749.559,186.326"/>
		</defs>
		<clipPath id="SVGID_4_">
			<use xlink:href="#SVGID_3_"  overflow="visible"/>
		</clipPath>
		
			<linearGradient id="SVGID_5_" gradientUnits="userSpaceOnUse" x1="-640.7876" y1="1079.9775" x2="-639.7876" y2="1079.9775" gradientTransform="matrix(-1584.1584 117.0117 117.0117 1584.1584 -1140061.5 -1635415.5)">
			<stop  offset="0" style="stop-color:#66155E"/>
			<stop  offset="0.0145" style="stop-color:#66155E"/>
			<stop  offset="0.1921" style="stop-color:#611460"/>
			<stop  offset="0.3953" style="stop-color:#531167"/>
			<stop  offset="0.611" style="stop-color:#3D0C71"/>
			<stop  offset="0.8341" style="stop-color:#1D0680"/>
			<stop  offset="1" style="stop-color:#00008D"/>
		</linearGradient>
		<polygon clip-path="url(#SVGID_4_)" fill="url(#SVGID_5_)" points="1333.687,877.753 156.538,964.702 95.938,144.277 
			1273.087,57.328 		"/>
	</g>
	<g clip-path="url(#SVGID_2_)">
		<defs>
			<rect id="SVGID_6_" x="112.712" width="1166.5" height="1080"/>
		</defs>
		<clipPath id="SVGID_7_">
			<use xlink:href="#SVGID_6_"  overflow="visible"/>
		</clipPath>
		<path clip-path="url(#SVGID_7_)" fill="#40405A" d="M982.331,179.58h213.741c15.617,0,28.276,12.66,28.276,28.277v129.187
			c0,15.618-12.659,28.278-28.276,28.278H974.844l-20.792,22.871V207.857C954.052,192.24,966.713,179.58,982.331,179.58"/>
		<path clip-path="url(#SVGID_7_)" fill="#40405A" d="M762.759,190.901H646.64c-8.484,0-15.362,6.878-15.362,15.362v70.184
			c0,8.485,6.878,15.363,15.362,15.363h120.187l11.295,12.425v-97.972C778.122,197.779,771.244,190.901,762.759,190.901"/>
		<polygon clip-path="url(#SVGID_7_)" fill="#FF0013" points="689.583,239.483 673.905,244.516 687.55,249.548 686.001,257.339 
			663.114,248.386 664.855,239.773 691.326,230.821 		"/>
		<polygon clip-path="url(#SVGID_7_)" fill="#FF0013" points="709.812,220.272 719.781,220.272 695.004,265.856 685.037,265.856 		
			"/>
		<polygon clip-path="url(#SVGID_7_)" fill="#FF0013" points="740.833,239.773 739.09,248.386 712.622,257.339 714.363,248.677 
			730.042,243.646 716.396,238.612 717.944,230.821 		"/>
		<path clip-path="url(#SVGID_7_)" fill="#111111" d="M805.014,347.152c0,0,10.188-31.133-17.831-35.096
			c-19.813-3.678-37.359,0.567-44.718,15.001c-7.359,14.435-0.493,58.98,21.227,81.23c23.208,23.774,53.209,43.019,88.022,31.416
			c34.812-11.605,46.133-31.416,49.247-44.719c3.112-13.303-6.793-32.266-31.699-32.831c-24.907-0.566-39.342,4.245-52.361,0.565
			C803.882,359.04,805.014,347.152,805.014,347.152"/>
		<path clip-path="url(#SVGID_7_)" fill="#171826" d="M756.271,340.314c0,0,5.156-8.304,6.006-9.295
			c-5.66,2.406-11.888,10.19-11.604,17.69c0.284,7.359,5.802,12.594,5.802,12.594L756.271,340.314z"/>
		<path clip-path="url(#SVGID_7_)" fill="#171826" d="M752.087,353.379c0,0,5.661,61.418,50.945,70.758
			c37.524,7.739,67.361,0,74.154-18.398c6.063-16.421-4.246-28.302-12.454-31.699c-8.207-3.396-30.851,6.793-53.492-1.415
			S796.24,349.7,796.24,349.7L752.087,353.379z"/>
		<path clip-path="url(#SVGID_7_)" fill="#F09087" d="M639.054,432.585c0,0,38.129,12.151,45.39,21.27
			c4.745,5.957,5.944,13.868-0.283,19.528c-6.226,5.661-17.526-1.811-21.51-4.812l-27.128-19.412
			C635.523,449.159,630.148,434.537,639.054,432.585"/>
		<path clip-path="url(#SVGID_7_)" fill="#D3333B" d="M666.542,472.817c0,0,33.753,27.275,53.492,22.076
			c20.808-10.849,35.428-42.726,38.188-55.462c2.76-12.736-4.268-43.048-18.447-41.759c-4.67,0.425-30.778,60.074-30.778,60.074
			l-32.689-11.463C676.307,446.283,664.632,459.869,666.542,472.817"/>
		<path clip-path="url(#SVGID_7_)" fill="#F09087" d="M628.668,428.72c0,0-5.296,4.145-9.441,5.987
			c-3.602,1.601-16.58,6.678-16.81,10.132c-0.374,5.596,8.52-1.842,15.428-3.223c6.908-1.382,7.829,6.217,12.665,4.835
			c4.836-1.381,7.369-3.915,5.988-8.52C635.117,433.325,628.668,428.72,628.668,428.72"/>
		<path clip-path="url(#SVGID_7_)" fill="#F7AB9D" d="M640.522,439.164c0,0,0-11.374-1.94-13.843
			c-1.938-2.469-16.047-2.821-16.047-2.821s-3.88-4.939-5.643-4.409c-1.764,0.529-1.235,4.761,1.587,7.935
			c2.821,3.174,9.699,1.059,9.699,1.059s0.705,7.759,2.645,9.698C632.763,438.724,640.522,439.164,640.522,439.164"/>
		<path clip-path="url(#SVGID_7_)" fill="#F7AB9D" d="M643.167,446.13c0.177,3.527-8.289,7.583-10.934,7.583
			c-0.148,0-0.307,0-0.473-0.004c-2.737-0.046-7.336-0.529-8.168-3.523c-1.235,0.176-4.232-0.705-4.762-3.879
			c-1.939-1.059-3.703-2.116-2.645-4.762c1.057-2.645,4.761-3.703,7.582-2.821c2.822,0.882,1.968,2.998,1.968,2.998
			s2.793-0.875,2.793,2.941v0.056c1.94-4.232,11.287-6.877,11.287-6.877S642.991,442.603,643.167,446.13"/>
		<path clip-path="url(#SVGID_7_)" fill="#F09087" d="M643.167,446.13c0.177,3.527-8.289,7.583-10.934,7.583
			c-0.148,0-0.307,0-0.473-0.004c-2.79-1.636-3.055-4.316-3.055-4.316s0.705,0.44,2.293,0.705c1.586,0.264,3.791-1.499,2.733-3.351
			c-1.058-1.851-5.203-2.028-5.203-2.028c1.94-4.232,11.287-6.877,11.287-6.877S642.991,442.603,643.167,446.13"/>
		<path clip-path="url(#SVGID_7_)" fill="#4C5D46" d="M875.421,569.239c-1.082,9.96-7.685,31.913-15.929,56.558v0.006
			c-8.639,25.815-19.075,54.586-26.856,75.602c-6.155,16.629-8.792,38.493-13.25,62.688
			c-4.457,24.199-39.482,118.443-39.482,118.443l-16.99-12.617l-5.064-3.762l-19.971-14.825l37.567-124.17l31.531-168.162
			l4.768-25.421l52.214-23.563C863.958,510.015,878.606,539.946,875.421,569.239"/>
		<path clip-path="url(#SVGID_7_)" fill="none" stroke="#FFFFFF" stroke-width="2" stroke-miterlimit="10" d="M856.525,575.557
			c0,0-32.83,95.382-41.32,123.402c-8.491,28.02-14.154,53.772-20.947,80.942c-5.209,20.828-23.222,68.772-31.344,90.017
			l-5.064-3.762c17.733-32.503,42.038-121.301,45.184-138.613c3.396-18.68,50.381-155.667,50.381-155.667L856.525,575.557z"/>
		<path clip-path="url(#SVGID_7_)" fill="#384936" d="M875.421,569.239c-1.082,9.96-7.685,31.913-15.929,56.558
			c-3.375-13.415-5.867-36.489-17.788-64.807c-9.115,0.569-23.431-0.696-34.728-1.991l4.768-25.421l52.214-23.563
			C863.958,510.015,878.606,539.946,875.421,569.239"/>
		<path clip-path="url(#SVGID_7_)" fill="#D3333B" d="M779.904,881.652l-86.814-2.302c0,0,0.271-4.911,2.784-9.374
			c1.325-2.355,3.27-4.589,6.131-5.909c8.278-3.821,35.874-12.736,35.874-12.736s10.116-3.418,31.922,18.646
			C773.069,873.28,776.448,877.144,779.904,881.652"/>
		<path clip-path="url(#SVGID_7_)" fill="#FFFFFF" d="M779.904,881.652l-86.814-2.302c0,0,0.271-4.911,2.784-9.374H769.8
			C773.069,873.28,776.448,877.144,779.904,881.652"/>
		<path clip-path="url(#SVGID_7_)" fill="#4C5D46" d="M935.494,732.637c-0.854,14.003-15.293,149.017-15.293,149.017l-12.754-8.133
			l-4.918-3.134l-30.923-19.695c0,0,11.663-93.421,11.246-140.983c-3.411-60.813-19.239-119.186-29.434-151.377
			c-5.098-16.106-8.787-25.646-8.787-25.646l26.677-12.158l21.739-9.918l3.927-1.805c0,0,4.602,3.63,10.493,9.164
			c9.382,8.826,22.016,22.512,24.635,34.234c4.244,19.101-3.829,135.866-3.829,135.866S936.346,718.633,935.494,732.637"/>
		<path clip-path="url(#SVGID_7_)" fill="#384936" d="M907.47,517.968c-6.25,7.926-14.723,17.423-22.501,23.201
			c-8.517,6.325-21.778,12.795-31.543,17.164c-5.103-16.111-8.788-25.655-8.788-25.655l52.347-23.868
			C896.985,508.81,901.582,512.427,907.47,517.968"/>
		<path clip-path="url(#SVGID_7_)" fill="none" stroke="#FFFFFF" stroke-width="2" stroke-miterlimit="10" d="M920.638,770.421
			c-1.151,23.107-11.068,89.156-13.19,103.1l-4.919-3.134c2.499-13.983,12.316-70.114,13.428-92.329
			c1.23-24.396,2.836-55.834-1.508-80.45c-0.396-2.161-0.575-4.343-0.595-6.524c-0.219-22.77-5.454-111.629-11.048-138.881
			c-22.293-1.825-29.355-18.902-31.498-31.676l21.739-9.917c4.82,10.314,13.31,28.998,15.689,37.348
			c3.074,10.73,7.517,101.731,8.053,137.751c0.079,5.533,0.595,11.067,1.488,16.522
			C920.935,718.692,921.729,748.167,920.638,770.421z"/>
		<path clip-path="url(#SVGID_7_)" fill="#384936" d="M889.215,703.344c0.567-1.216,19.104-1.698,20.802,1.274
			c1.698,2.972-5.519,32.265-10.613,28.868S886.244,709.712,889.215,703.344"/>
		<path clip-path="url(#SVGID_7_)" fill="#EF515F" d="M920.207,881.652l-86.814-2.302c0,0,0.271-4.911,2.784-9.374
			c1.325-2.355,3.27-4.589,6.131-5.909c8.278-3.821,29.294-13.373,29.294-13.373s16.697-2.781,38.502,19.282
			C913.372,873.28,916.75,877.144,920.207,881.652"/>
		<path clip-path="url(#SVGID_7_)" fill="#FFFFFF" d="M920.207,881.652l-86.814-2.302c0,0,0.271-4.911,2.784-9.374h73.927
			C913.372,873.28,916.75,877.144,920.207,881.652"/>
		<path clip-path="url(#SVGID_7_)" fill="#EF515F" d="M896.984,508.81c-7.705,10.401-38.914,27.354-48.159,29.668
			c-9.247,2.31-25.724,4.156-49.612,1.842c-0.238-4.729-6.232-23.851-11.633-39.159c-3.396-9.638-6.56-17.768-7.896-19.853
			c-3.469-5.395-23.324-11.411-26.793-18.73c-3.468-7.324-1.227-31.366-1.227-31.366s-15.742-29.301-11.887-33.539
			c3.854-4.236,24.113-13.843,24.113-13.843s16.354-3.703,23.91-3.053c7.561,0.654,54.091,0.505,61.41,17.457
			c7.318,16.952,30.436,91.31,30.436,91.31S881.187,493.399,896.984,508.81"/>
		<path clip-path="url(#SVGID_7_)" fill="#D3333B" d="M857.375,496.592c-2.594,1.944-46.258,6.363-69.795,4.568
			c-3.396-9.637-6.559-17.767-7.896-19.852c0,0,21.651,8.491,38.633,10.189C835.298,493.196,860.771,494.044,857.375,496.592"/>
		<path clip-path="url(#SVGID_7_)" fill="#FFBDF2" d="M806.712,558.858c-34.5,44.996-36.369,42.596-36.369,42.596
			c-10.338-0.786-14.142-10.898-14.142-10.898l27.586-48.113C791.093,545.015,799.704,550.346,806.712,558.858"/>
		<path clip-path="url(#SVGID_7_)" fill="#D3333B" d="M851.146,458.383c-2.225,21.698-3.753,50.037-24.339,78.965
			c-5.175,7.272-11.691,15.505-18.544,23.749c-7.009-8.512-20.926-14.265-28.231-16.838l25.549-47.383c0,0,8.1-94.346,12.549-101.58
			c4.45-7.234,15.543-8.721,24.479-1.112C850.867,401.21,853.375,436.685,851.146,458.383"/>
		<path clip-path="url(#SVGID_7_)" fill="#EF515F" d="M742.49,585.321c0,0-6.137,0.743-7.306,1.273s-11.397,10.613-12.567,11.675
			c-1.169,1.062-6.526,2.548-7.111,3.608c-0.584,1.062,2.241,4.352,7.307,2.76S740.639,588.823,742.49,585.321"/>
		<path clip-path="url(#SVGID_7_)" fill="#FFBDF2" d="M770.546,601.454c-3.116,1.485-16.709,1.494-16.709,1.494
			s-12.127,2.326-16.998,2.538c-1.865,0.086-4.22,0.226-6.468,0.276c-1.348,0.03-2.657,0.025-3.8-0.042
			c-1.928-0.119-3.382-0.425-3.76-1.083c-0.975-1.698,16.226-19.316,19.678-19.316c5.456,0,22.407,1.698,22.407,1.698
			C775.028,589.991,773.665,599.968,770.546,601.454"/>
		<path clip-path="url(#SVGID_7_)" fill="#EF515F" d="M730.372,605.763c-1.348,0.03-2.658,0.025-3.799-0.042
			c4.423-5.435,14.04-14.265,14.358-13.395C741.201,593.057,734.544,600.927,730.372,605.763"/>
		<path clip-path="url(#SVGID_7_)" fill="#FFBDF2" d="M788.573,378.08c-2.98,7.022-15.534,12.342-24.683,5.749
			c0-2.034-0.675-5.413-1.664-9.28c-2.742-10.716-7.909-25.189-7.909-25.189c10.21-5.961,29.998,13.616,29.998,16.595
			c0,2.629,0,5.1,2.938,10.041C787.638,376.645,788.076,377.338,788.573,378.08"/>
		<path clip-path="url(#SVGID_7_)" fill="#F995EB" d="M788.573,378.08c-2.98,7.022-15.534,12.342-24.683,5.749
			c0-2.034-0.675-5.413-1.664-9.28c-2.742-10.716-7.909-25.189-7.909-25.189c10.21-5.961,29.998,13.616,29.998,16.595
			c0,2.629,0,5.1,2.938,10.041C787.638,376.645,788.076,377.338,788.573,378.08"/>
		<path clip-path="url(#SVGID_7_)" fill="#D3333B" d="M788.497,376.14c0,0-6.925,4.601-10.544,6.434
			c-6.251-1.014-15.219-3.638-15.219-3.638s-0.135,3.661,0.105,7.421c2.176,5.48,11.756,9.79,11.756,9.79s2.832-4.506,4.419-7.631
			c1.699,2.271,3.616,4.725,5.005,6.192c3.94-1.874,8.672-12.467,8.616-14.008C790.394,377.292,788.497,376.14,788.497,376.14"/>
		<path clip-path="url(#SVGID_7_)" fill="#F995EB" d="M745.345,343.631c-3.032,1.43-2.844,4.338-2.057,7.335
			c0.786,2.998,6.617,8.944,11.1,9.468c4.131,0.482,6.315-0.444,6.315-0.444S752.776,340.129,745.345,343.631"/>
		<path clip-path="url(#SVGID_7_)" fill="#F995EB" d="M802.931,342.46c3.288,0.65,3.811,3.519,3.774,6.617
			c-0.035,3.099-4.25,10.281-8.471,11.877c-3.891,1.47-6.235,1.102-6.235,1.102S794.873,340.864,802.931,342.46"/>
		<path clip-path="url(#SVGID_7_)" fill="#FFBDF2" d="M798.341,338.437c0,0-0.183,1.185-0.501,3.116
			c-1.295,7.875-4.86,28.164-7.573,30.877c-3.383,3.384-22.353-2.254-26.861-4.882c-4.504-2.628-10.329-20.849-10.329-20.849
			s2.628-5.634,3.193-6.385c0.563-0.752,4.694-3.38,10.894-4.883c6.198-1.503,13.899-6.385,17.092-11.266
			C785.759,334.494,798.341,338.437,798.341,338.437"/>
		<path clip-path="url(#SVGID_7_)" fill="#F9DEA6" d="M947.355,696.321v22.931h234.152v-22.931c0-11.958-9.694-21.651-21.652-21.651
			H969.006C957.049,674.67,947.355,684.363,947.355,696.321"/>
		<path clip-path="url(#SVGID_7_)" fill="#2F2D44" d="M1043.226,633.479c0,0-94.846,22.725-110.621,32.303
			c-15.776,9.579-54.225,187.252-54.225,187.252s37.188,12.959,48.457,28.173c18.594-81.137,45.208-166.968,45.208-166.968
			s74.938-20.848,90.152-26.482c15.213-5.635,39.44-23.102,45.639-45.64C1114.035,619.579,1049.047,629.911,1043.226,633.479"/>
		<path clip-path="url(#SVGID_7_)" fill="#9F4835" d="M926.837,881.206h-25.26l-6.772,0.025h-60.446c0,0,1.933-2.573,4.771-5.52
			c3.049-3.149,7.137-6.729,11.03-8.027c7.522-2.505,18.935-10.147,23.01-13.854c4.076-3.702,20.128-12.478,26.397-10.975
			c5.163,1.235,21.079,17.372,25.906,30.474c0.297,0.807,0.553,1.605,0.76,2.382C926.76,877.665,926.986,879.521,926.837,881.206"/>
		<path clip-path="url(#SVGID_7_)" fill="#843528" d="M926.837,881.206h-25.26l-6.772,0.025h-60.446c0,0,3.516-2.573,8.69-5.52
			h83.185C926.76,877.665,926.986,879.521,926.837,881.206"/>
		<path clip-path="url(#SVGID_7_)" fill="#AF5647" d="M864.708,862.295c-6.856,4.682-17.892,7.858-19.731,10.032l-1.84,2.174
			l39.965-0.502C883.101,873.999,875.41,861.626,864.708,862.295"/>
		<path clip-path="url(#SVGID_7_)" fill="#843528" d="M910.859,854.018c0,0-12.793,8.653-20.191,11.287
			c-7.399,2.634-13.921,4.515-15.175,11.161l-1.505,0.251c0,0-1.504-3.512,5.267-8.402c6.772-4.892,10.786-3.888,17.182-7.775
			c6.396-3.888,13.419-8.402,13.419-8.402L910.859,854.018z"/>
		<path clip-path="url(#SVGID_7_)" fill="#9F4835" d="M1066.978,881.206h-25.261l-6.771,0.025H974.5c0,0,1.932-2.573,4.771-5.52
			c3.049-3.149,7.137-6.729,11.029-8.027c7.523-2.505,18.936-10.147,23.01-13.854c4.076-3.702,20.129-12.478,26.398-10.975
			c5.163,1.235,21.079,17.372,25.906,30.474c0.298,0.807,0.552,1.605,0.76,2.382
			C1066.902,877.665,1067.125,879.521,1066.978,881.206"/>
		<path clip-path="url(#SVGID_7_)" fill="#843528" d="M1066.978,881.206h-25.261l-6.771,0.025H974.5c0,0,3.515-2.573,8.689-5.52
			h83.186C1066.902,877.665,1067.125,879.521,1066.978,881.206"/>
		<path clip-path="url(#SVGID_7_)" fill="#AF5647" d="M1004.847,862.295c-6.855,4.682-17.892,7.858-19.73,10.032l-1.84,2.174
			l39.965-0.502C1023.242,873.999,1015.549,861.626,1004.847,862.295"/>
		<path clip-path="url(#SVGID_7_)" fill="#843528" d="M1050.999,854.018c0,0-12.792,8.653-20.191,11.287
			c-7.398,2.634-13.92,4.515-15.175,11.161l-1.505,0.251c0,0-1.504-3.512,5.269-8.402c6.771-4.892,10.784-3.888,17.181-7.775
			c6.396-3.888,13.419-8.402,13.419-8.402L1050.999,854.018z"/>
		<path clip-path="url(#SVGID_7_)" fill="#40405A" d="M1166.718,667.191c-3.805,9.718-75.646,46.059-75.646,46.059l-24.095,167.956
			c0,0-4.237-2.536-10.359-5.944c-1.006-0.56-2.064-1.146-3.159-1.744c-12.442-6.811-33.41-19.24-40.95-19.499
			c7.185-39.725,16.868-124.708,20.668-150.486c3.805-25.777,51.981-53.666,51.981-53.666l10.142-16.905l38.625,9.314l20.545,4.954
			l12.668,3.057C1167.138,650.286,1170.522,657.47,1166.718,667.191"/>
		<path clip-path="url(#SVGID_7_)" fill="none" stroke="#FFFFFF" stroke-width="2" stroke-miterlimit="10" d="M1154.47,647.229
			c-3.631,9.141-9.057,17.041-11.701,19.117c-2.713,2.131-30.066,18.515-46.896,28.542c-8.287,4.941-13.878,13.382-15.189,22.942
			l-24.065,157.431c-1.006-0.56-2.064-1.146-3.159-1.744l24.414-157.898c1.308-9.412,6.767-17.746,14.88-22.7
			c9.696-5.927,24.233-14.851,41.283-25.447c-4.284-9.519-2.493-18.854-0.111-25.196L1154.47,647.229z"/>
		<path clip-path="url(#SVGID_7_)" fill="#FFBDF2" d="M936.181,572.44c0,0,55.226,35.282,90.764,16.874
			c14.572-18.92,28.123-44.998,27.867-45.765c-0.256-0.768-31.703-13.55-31.703-13.55l-20.965,30.424l-59.57,0.256
			C942.574,560.68,931.324,565.025,936.181,572.44"/>
		<path clip-path="url(#SVGID_7_)" fill="#EF515F" d="M914.574,563.234l16.903,8.451c0,0,13.241,1.127,13.429-4.132
			c0.188-5.259-16.151-21.505-18.5-21.975c-2.348-0.47-12.02,3.005-12.864,4.038c-0.846,1.033-3.1,12.584-3.1,12.584
			L914.574,563.234z"/>
		<path clip-path="url(#SVGID_7_)" fill="#FFBDF2" d="M915.607,565.347c0.197,2.364-1.314,3.804-3.288,2.771
			c-1.312,3.005-3.859,1.808-6.572-1.313c-3.099-3.57-3.549-6.088-3.286-7.985c0.468-3.379,1.971-4.037,1.971-4.037
			s0.972-2.59,2.097-4.414c0.357-0.584,0.729-1.088,1.095-1.406c1.504-1.316,14.698,1.834,14.698,1.834l-9.085,1.1l1.21,7.684
			C915.089,562.482,915.513,564.22,915.607,565.347"/>
		<path clip-path="url(#SVGID_7_)" fill="#EF515F" d="M912.319,568.116c-6.479-5.256-7.888-13.335-7.888-13.335
			s0.972-2.59,2.097-4.415C907.134,558.411,909.067,562.563,912.319,568.116"/>
		<path clip-path="url(#SVGID_7_)" fill="#FFBDF2" d="M924.152,544.358c0,0-10.142-2.16-12.959,0.657
			c-2.816,2.817-7.324,19.908-4.508,22.162c2.818,2.254,8.734-15.494,8.734-15.494l8.546-0.094L924.152,544.358z"/>
		<path clip-path="url(#SVGID_7_)" fill="#FFBDF2" d="M925.28,538.255c-4.883,0.938-5.071,9.203-4.883,12.959
			c0.187,3.756,0.751,15.213,2.816,15.589c1.555,0.282,2.79-10.815,3.307-16.326c0.102-1.086,1.479-1.491,2.151-0.633
			c1.754,2.234,3.49,4.485,5.159,6.785c1.676,2.31,3.457,4.375,2.786,7.444c-1.33,6.08-8.564,5.013-11.525,9.397
			c-2.348,3.475-1.363,8.065,1.409,6.761c1.597-0.751,4.507-3.851,6.949-4.227c3.771-0.579,7.596-1.121,11.184-2.477
			c1.994-0.752,3.909-1.708,4.87-3.706c3.038-6.315-3.117-12.601-6.913-17.032c-3.827-4.468-7.999-8.911-12.766-12.397
			C928.718,539.583,926.797,537.963,925.28,538.255"/>
		<path clip-path="url(#SVGID_7_)" fill="#F92B66" d="M1041.255,488.108c-9.761,3.667-34.275,58.222-34.275,58.222
			s31.834,12.114,40.568,21.975c10.423-25.354,20.002-42.54,19.438-56.344C1066.423,498.156,1057.501,482.005,1041.255,488.108"/>
		<path clip-path="url(#SVGID_7_)" fill="#F92B66" d="M1171.693,656.298l-128.467-22.819l12.116-39.725l-1.685-12.999l-5.077-39.117
			c0,0-9.858-49.023-7.324-53.531c2.535-4.504,28.173-18.875,28.173-18.875c3.379-2.815,22.255-5.07,27.608-3.945
			c5.353,1.13,44.513,12.682,51.556,19.16c7.044,6.479,26.479,80.575,27.329,107.898
			C1176.766,619.673,1171.693,656.298,1171.693,656.298"/>
		<path clip-path="url(#SVGID_7_)" fill="#CBEBFB" d="M1131.222,602.533c-0.85,3.805-75.88-8.779-75.88-8.779l-1.685-12.999
			C1072.079,583.501,1131.948,599.265,1131.222,602.533"/>
		<path clip-path="url(#SVGID_7_)" fill="#FFBDF2" d="M1190.812,582.391c0.413-0.873,0.227-15.964-9.916-37.75
			c-11.645,0.375-29.861,10.142-29.861,10.142l5.634,21.411c0,0,3.756,12.208,6.386,14.086
			C1165.683,592.157,1181.758,601.548,1190.812,582.391"/>
		<path clip-path="url(#SVGID_7_)" fill="#F92B66" d="M1145.024,482.098c1.904-2.216,24.416,17.843,31.741,34.558
			c7.051,16.09,10.518,27.046,10.518,27.046s-7.325,8.451-22.35,12.771c-15.026,4.32-21.224,2.817-21.224,2.817
			S1125.491,504.824,1145.024,482.098"/>
		<path clip-path="url(#SVGID_7_)" fill="#FFBDF2" d="M1106.378,600.541c0,0,27.064,3.063,38.045,3.574
			c10.98,0.511,27.205,1.078,36.932-9.43c9.729-10.508,9.844-15.798,6.624-21.269c-3.219-5.471-14.809-6.646-23.806-3.504
			s-22.63,10.224-29.913,11.938c-7.284,1.714-19.906,2.663-19.906,2.663L1106.378,600.541z"/>
		<path clip-path="url(#SVGID_7_)" fill="#D390CA" d="M1118.164,585.406c0,0,3.918,5.111,2.291,12.688
			c-1.626,7.574-15.378,2.046-18.278-6.587C1106.381,582.799,1118.164,585.406,1118.164,585.406"/>
		<path clip-path="url(#SVGID_7_)" fill="#D390CA" d="M1084.96,588.833c-0.797,0.104-8.752-1.756-9.605-0.991
			c-0.854,0.766-0.057,5.195,7.253,6.518s9.024-2.713,9.024-2.713s3.304,2.844,5.866,3.782c3.643,1.333,6.384,0.334,6.384,0.334
			s7.552,5.237,9.399,3.933c1.847-1.304,3.237-7.247-0.127-12.663c-3.363-5.415-9.444-8.282-12.718-7.891
			C1097.163,579.534,1085.755,588.73,1084.96,588.833"/>
		<path clip-path="url(#SVGID_7_)" fill="#FFBDF2" d="M1118.164,585.406c-0.404-2.409-3.588-0.742-3.588-0.742
			s1.069-2.934-1.437-4.579c-0.956-0.628-3.424,1.032-3.424,1.032s1.184-3.628-0.151-4.52c-1.33-0.892-4.382-0.013-4.382-0.013
			s-0.903-0.543-2.199-1.19c-1.226-0.613-4.584,0.052-5.986,0.726c-4.997,2.399-8.604,7.924-10.063,10.862l-0.01,0.021
			c-0.509,1.022,0.017,2.256,1.114,2.571l0.26,0.075c0.67,0.193,1.388-0.011,1.86-0.523c2.957-3.207,8.642-7.668,9.477-7.372
			l2.183,0.771c-0.005,0.003-0.005,0.003-0.006,0.008c-0.192,0.338-7.438,13.146-6.29,14.748c1.164,1.624,1.979,1.645,3.71-0.194
			c2.309-2.449,7.952-11.739,7.952-11.739s-4.716,13.172-3.834,14.342c0.885,1.174,1.437,1.687,3.018,0.705
			c1.58-0.979,5.925-11.731,5.925-11.731s-2.528,13.296-0.151,13.852S1118.565,587.815,1118.164,585.406"/>
		<path clip-path="url(#SVGID_7_)" fill="#D390CA" d="M1105.181,576.585c0,0-0.905,0.368-3.363,5.94l-2.183-0.771l3.349-6.359
			C1104.28,576.042,1105.181,576.585,1105.181,576.585"/>
		<path clip-path="url(#SVGID_7_)" fill="#111111" d="M1100.833,434.139c-3.524,10.087-7.366,17.135-7.366,17.135l-1.771-2.82
			l-5.277-8.393l-33.067-0.581l-3.121-0.055c0,0-7.688-8.33-8.006-12.333c-0.319-3.944,4.182-13.633,4.317-13.921
			c-0.209,0.191-5.923,5.557-6.08,3.511c-0.161-2.08,6.725-8.325,6.725-8.325s-5.604-6.563-4.164-7.846
			c1.443-1.282,8.491,3.842,8.491,3.842s1.919-4.484,7.845-6.406c5.923-1.919,29.145,0.479,36.829,9.289
			C1103.876,416.045,1104.356,424.052,1100.833,434.139"/>
		<path clip-path="url(#SVGID_7_)" fill="#171826" d="M1099.105,430.165c-1.295,5.035-5.506,14.243-7.408,18.289l-5.277-8.393
			l-33.067-0.582l-5.897-6.966c0,0-2.725-4.318-2.44-8.546c0.28-4.225,9.106-12.393,9.106-12.393s-0.658-4.042,0.094-5.26
			c0.751-1.222,2.725-2.628,10.8-2.725c8.075-0.094,24.229,2.538,29.489,7.514C1099.759,416.079,1100.794,423.593,1099.105,430.165"
			/>
		<path clip-path="url(#SVGID_7_)" fill="#1967A5" d="M1074.312,483.317c0,0-2.724,25.065-0.24,25.894
			c2.482,0.827,5.518-6.623,5.518-7.727s0.277-18.486,0.277-18.486L1074.312,483.317z"/>
		<path clip-path="url(#SVGID_7_)" fill="#3985C3" d="M1070.085,462.471c0,0-8.17,3.381-9.015,8.827
			c-0.387,2.49-1.878,7.983-1.033,10.987c0.845,3.005,7.512,14.087,7.512,14.087s-0.845-5.634,0.658-8.546
			c1.503-2.911,6.104-4.508,6.104-4.508s4.978,3.194,7.231,12.585c12.02-5.729,20.941-9.767,23.007-17.186
			c2.066-7.419,1.315-10.611,0.658-12.865c-0.658-2.254-6.48-6.573-8.828-7.607C1094.032,457.212,1077.035,458.245,1070.085,462.471
			"/>
		<path clip-path="url(#SVGID_7_)" fill="#1967A5" d="M1064.64,474.771c0,0-1.691-3.004,0.844-6.479
			c2.535-3.474,12.771-8.639,17.467-9.014c4.696-0.376,13.522,0.845,13.711,4.789
			C1096.848,468.012,1079.856,483.036,1064.64,474.771"/>
		<path clip-path="url(#SVGID_7_)" fill="#FFBDF2" d="M1096.099,471.485c-3.286,3.944-15.684,10.987-21.788,11.832
			c-4.602-1.503-10.235-8.452-9.67-8.546c0.56-0.093,5.633-4.975,6.194-7.701c-0.129-0.811-0.315-1.613-0.535-2.382
			c-1.087-3.773-3.032-6.817-3.032-6.817c-2.161-10.237,20.378-20.663,22.162-17.471c0.444,0.803,1.276,2.611,2.279,4.887
			c2.992,6.797,7.515,17.746,7.862,18.31C1100.043,464.35,1099.385,467.542,1096.099,471.485"/>
		<path clip-path="url(#SVGID_7_)" fill="#F995EB" d="M1091.709,445.287c-1.626,5.404-3.677,8.372-8.665,12.443
			c-3.545,2.892-9.145,5.469-12.745,6.958c-1.087-3.773-3.031-6.817-3.031-6.817c-2.161-10.236,20.378-20.663,22.161-17.471
			C1089.875,441.203,1090.708,443.012,1091.709,445.287"/>
		<path clip-path="url(#SVGID_7_)" fill="#F995EB" d="M1040.783,434.262c0,2.633,3.509,8.773,7.078,10.169
			c3.289,1.287,5.282,0.995,5.282,0.995s-0.063-0.53-0.209-1.402c-0.05-0.307-0.111-0.66-0.183-1.05
			c-0.896-4.882-3.434-15.277-8.698-14.297C1041.252,429.2,1040.783,431.63,1040.783,434.262"/>
		<path clip-path="url(#SVGID_7_)" fill="#F995EB" d="M1100.864,430.871c0,2.827-3.769,9.423-7.603,10.922
			c-3.532,1.383-5.675,1.069-5.675,1.069s0.07-0.57,0.226-1.507c0.054-0.329,0.12-0.709,0.197-1.127
			c0.961-5.244,3.688-16.41,9.342-15.357C1100.361,425.434,1100.864,428.044,1100.864,430.871"/>
		<path clip-path="url(#SVGID_7_)" fill="#FFBDF2" d="M1090.181,426.314c0,0-0.051,1.762-0.188,4.576
			c-0.114,2.505-0.301,5.838-0.563,9.51c-0.519,7.184-4.883,10.894-9.952,13.993c-4.61,2.815-16.531,8.546-22.352,5.26
			c-4.908-2.772-7.947-22.65-8.844-31.225c-0.162-1.592-0.255-2.794-0.268-3.426c-0.093-4.038,7.137-10.987,7.137-10.987
			s2.912,6.479,10.426,8.355C1073.089,424.251,1090.181,426.314,1090.181,426.314"/>
		<path clip-path="url(#SVGID_7_)" fill="#CBEBFB" d="M1035.398,562.385H824.625c-3.645,0-6.6-2.955-6.6-6.6V416.008
			c0-3.644,2.955-6.6,6.6-6.6h210.772c3.645,0,6.599,2.956,6.599,6.6v139.777C1041.997,559.43,1039.042,562.385,1035.398,562.385"/>
		<path clip-path="url(#SVGID_7_)" fill="#FFFFFF" d="M1029.509,562.385H818.738c-3.646,0-6.6-2.955-6.6-6.6V416.008
			c0-3.644,2.954-6.6,6.6-6.6h210.771c3.646,0,6.6,2.956,6.6,6.6v139.777C1036.109,559.43,1033.155,562.385,1029.509,562.385"/>
		<path clip-path="url(#SVGID_7_)" fill="#B6E4F9" d="M896.064,520.267L896.064,520.267c0-2.878,2.333-5.212,5.212-5.212h39.16
			c2.878,0,5.211,2.334,5.211,5.212c0,2.879-2.333,5.212-5.211,5.212h-39.16C898.397,525.479,896.064,523.146,896.064,520.267"/>
		<path clip-path="url(#SVGID_7_)" fill="#CBEBFB" d="M939.552,591.428c0,0-7.387-29.815,0.123-69.748h-38.009
			c-4.25,13.196-15.726,48.789-13.535,74.397h48.046h32.366v-4.649H939.552z M913.71,573.151c-4.874,0-8.826-6.109-8.826-13.641
			c0-7.535,3.952-13.641,8.826-13.641s8.826,6.105,8.826,13.641C922.537,567.042,918.584,573.151,913.71,573.151"/>
		<path clip-path="url(#SVGID_7_)" fill="#B6E4F9" d="M968.544,591.428v4.649h-32.367c-10.299-22.183-3.312-63.521-1.21-74.397
			h4.708c-7.51,39.933-0.123,69.748-0.123,69.748H968.544z"/>
		<path clip-path="url(#SVGID_7_)" fill="#CBEBFB" d="M805.398,562.385H594.625c-3.645,0-6.599-2.955-6.599-6.6V416.008
			c0-3.644,2.954-6.6,6.599-6.6h210.772c3.645,0,6.599,2.956,6.599,6.6v139.777C811.997,559.43,809.042,562.385,805.398,562.385"/>
		<path clip-path="url(#SVGID_7_)" fill="#FFFFFF" d="M799.51,562.385H588.738c-3.645,0-6.6-2.955-6.6-6.6V416.008
			c0-3.644,2.955-6.6,6.6-6.6H799.51c3.645,0,6.599,2.956,6.599,6.6v139.777C806.109,559.43,803.155,562.385,799.51,562.385"/>
		<path clip-path="url(#SVGID_7_)" fill="#B6E4F9" d="M666.064,520.267L666.064,520.267c0-2.878,2.333-5.212,5.212-5.212h39.16
			c2.878,0,5.211,2.334,5.211,5.212c0,2.879-2.333,5.212-5.211,5.212h-39.16C668.397,525.479,666.064,523.146,666.064,520.267"/>
		<path clip-path="url(#SVGID_7_)" fill="#CBEBFB" d="M709.553,591.428c0,0-7.388-29.815,0.123-69.748h-38.01
			c-4.25,13.196-15.726,48.789-13.534,74.397h48.045h32.366v-4.649H709.553z M683.71,573.151c-4.873,0-8.826-6.109-8.826-13.641
			c0-7.535,3.953-13.641,8.826-13.641c4.874,0,8.826,6.105,8.826,13.641C692.537,567.042,688.584,573.151,683.71,573.151"/>
		<path clip-path="url(#SVGID_7_)" fill="#B6E4F9" d="M738.544,591.428v4.649h-32.367c-10.3-22.183-3.311-63.521-1.21-74.397h4.708
			c-7.51,39.933-0.123,69.748-0.123,69.748H738.544z"/>
		<rect x="514.294" y="596.053" clip-path="url(#SVGID_7_)" fill="#9F4835" width="16.98" height="285.684"/>
		<rect x="693.04" y="596.053" clip-path="url(#SVGID_7_)" fill="#7874AD" width="16.981" height="285.684"/>
		<polygon clip-path="url(#SVGID_7_)" fill="#7874AD" points="1265.974,596.054 1265.974,881.736 1248.994,881.736 
			1248.994,613.035 1099.553,613.035 1099.553,881.736 1082.573,881.736 1082.573,613.035 514.294,613.035 514.294,596.054 		"/>
		<path clip-path="url(#SVGID_7_)" fill="#BDB4F9" d="M1097.007,613.035v112.08h-83.809c-9.691,0-17.547-7.857-17.547-17.549
			c0-22.196-17.994-40.189-40.19-40.189H660.427c-18.206,0-34.383,11.615-40.202,28.866l-0.002,0.005
			c-5.819,17.252-21.996,28.867-40.202,28.867h-65.727v-112.08H1097.007z"/>
		<rect x="1097.006" y="613.035" clip-path="url(#SVGID_7_)" fill="#938FC9" width="168.968" height="112.08"/>
		<rect x="201.11" y="881.111" clip-path="url(#SVGID_7_)" fill="#282828" width="1355.693" height="5.003"/>
		<path clip-path="url(#SVGID_7_)" fill="#40405A" d="M496.419,395.744h141.46c10.336,0,18.715,8.379,18.715,18.715v85.5
			c0,10.336-8.379,18.715-18.715,18.715H491.464l-13.76,15.136V414.459C477.705,404.123,486.083,395.744,496.419,395.744"/>
		<path clip-path="url(#SVGID_7_)" fill="#FF2232" d="M516.311,414.346h104.888c1.268,0,2.294-1.027,2.294-2.294
			s-1.026-2.294-2.294-2.294H516.311c-1.267,0-2.293,1.027-2.293,2.294S515.044,414.346,516.311,414.346"/>
		<path clip-path="url(#SVGID_7_)" fill="#FF2232" d="M584.851,504.468H621.2c1.266,0,2.293-1.026,2.293-2.293
			s-1.027-2.293-2.293-2.293h-36.349c-1.268,0-2.294,1.026-2.294,2.293S583.583,504.468,584.851,504.468"/>
		<path clip-path="url(#SVGID_7_)" fill="#FF2232" d="M504.384,465.872h104.89c1.266,0,2.293-1.027,2.293-2.294
			s-1.027-2.293-2.293-2.293h-104.89c-1.266,0-2.293,1.026-2.293,2.293S503.119,465.872,504.384,465.872"/>
		<path clip-path="url(#SVGID_7_)" fill="#FF2232" d="M578.694,476.574h30.58c1.266,0,2.293-1.026,2.293-2.293
			s-1.027-2.293-2.293-2.293h-30.58c-1.267,0-2.293,1.026-2.293,2.293S577.427,476.574,578.694,476.574"/>
		<path clip-path="url(#SVGID_7_)" fill="#A3FC24" d="M528.849,423.52h66.357c1.267,0,2.294-1.027,2.294-2.294
			s-1.027-2.293-2.294-2.293h-66.357c-1.268,0-2.294,1.026-2.294,2.293S527.582,423.52,528.849,423.52"/>
		<path clip-path="url(#SVGID_7_)" fill="#A3FC24" d="M528.849,432.693h66.357c1.267,0,2.294-1.027,2.294-2.294
			s-1.027-2.293-2.294-2.293h-66.357c-1.268,0-2.294,1.026-2.294,2.293S527.582,432.693,528.849,432.693"/>
		<path clip-path="url(#SVGID_7_)" fill="#A3FC24" d="M528.849,442.479h66.357c1.267,0,2.294-1.026,2.294-2.293
			s-1.027-2.294-2.294-2.294h-66.357c-1.268,0-2.294,1.027-2.294,2.294S527.582,442.479,528.849,442.479"/>
		<path clip-path="url(#SVGID_7_)" fill="#A3FC24" d="M528.849,485.164h66.357c1.267,0,2.294-1.026,2.294-2.293
			s-1.027-2.294-2.294-2.294h-66.357c-1.268,0-2.294,1.027-2.294,2.294S527.582,485.164,528.849,485.164"/>
		<path clip-path="url(#SVGID_7_)" fill="#A3FC24" d="M528.849,494.949h66.357c1.267,0,2.294-1.026,2.294-2.293
			s-1.027-2.293-2.294-2.293h-66.357c-1.268,0-2.294,1.026-2.294,2.293S527.582,494.949,528.849,494.949"/>
		<path clip-path="url(#SVGID_7_)" fill="#7171FF" d="M542.609,453.793h66.358c1.267,0,2.293-1.026,2.293-2.294
			c0-1.267-1.026-2.293-2.293-2.293h-66.358c-1.266,0-2.293,1.026-2.293,2.293C540.316,452.767,541.343,453.793,542.609,453.793"/>
		<path clip-path="url(#SVGID_7_)" fill="#EF515F" d="M657.288,857.952c-10.703,45.643-40.005,80.574-70.992,80.574H377.254
			c-82.263-17.467-74.375-155.512-46.202-173.541c5.854-3.749,11.637-6.3,17.125-7.998c20.909-6.466,37.53-0.454,37.53-0.454
			s0.857-59.95,24.228-80.574c44.341-39.126,131.181-31.399,186.745-1.868c4.453,2.364,8.702,4.869,12.714,7.502
			C663.486,717.093,667.995,812.313,657.288,857.952"/>
		<path clip-path="url(#SVGID_7_)" fill="#D3333B" d="M584.041,847.81c-34.936,28.737-108.182,45.643-171.285,24.793
			c-63.108-20.849-73.815-61.414-71.562-89.026c1.117-13.704,4.183-21.855,6.984-26.589c20.909-6.466,37.53-0.454,37.53-0.454
			s0.856-59.95,24.228-80.574c34.071-30.065,93.237-32.465,144.024-18.565c32.615,8.926,55.021,38.885,54.32,72.692
			c-0.004,0.176-0.008,0.353-0.011,0.528c-0.565,25.919-11.832,26.483-11.832,26.483s7.323,4.504,16.901,19.72
			C622.921,792.029,618.977,819.076,584.041,847.81"/>
		<path clip-path="url(#SVGID_7_)" fill="#F48F9C" d="M559.25,899.648c0,0-0.846,29.581,24.51,26.2
			c27.134-3.618,65.924-52.4,63.388-108.182c-5.071-11.833-14.572-2.602-26.2,17.748
			C597.282,876.829,572.772,874.293,559.25,899.648"/>
		<path clip-path="url(#SVGID_7_)" fill="#F09087" d="M423.74,702.157c0,0-7.184,17.186-8.451,22.82
			c-1.268,5.634-2.677,11.973-0.424,15.917c16.342-4.509,26.483-7.888,26.483-7.888l12.255-22.82L423.74,702.157z"/>
		<path clip-path="url(#SVGID_7_)" fill="#F09087" d="M416.509,747.233c0,0-7.325-11.832,3.193-20.284
			c11.908-9.569,25.167,3.381,22.912,12.208C440.362,747.984,425.9,757.563,416.509,747.233"/>
		<path clip-path="url(#SVGID_7_)" fill="#FCB912" d="M443.556,648.066c-6.422,2.385-22.949,47.974-26.675,62.047
			c16.97,4.967,34.354,12.003,34.354,12.003s14.486-22.765,14.486-44.287C465.721,656.306,459.056,642.31,443.556,648.066"/>
		<path clip-path="url(#SVGID_7_)" fill="#EF515F" d="M430.783,735.119l6.902,6.902c0,0,3.945-4.695,5.776-5.682
			c1.831-0.985,5.86-0.879,7.419,0.094c1.502,0.939,1.643,2.817-0.188,3.381s-4.226,1.973-5.165,3.1
			c-0.372,0.446-5.446,6.433-8.123,7.137s-10.564,0.281-10.564,0.281S420.078,738.5,430.783,735.119"/>
		<path clip-path="url(#SVGID_7_)" fill="#F7AB9D" d="M431.911,754.839c-2.254,0.704-2.819-2.395-2.819-2.395
			s-0.637,0.815-1.914,1.023c-0.714,0.118-1.627,0.047-2.734-0.459c-0.373,0.819-0.789,1.448-1.27,1.847
			c-1.503,1.261-3.621,0.311-7.039-3.961c-0.425,2.959,0.846,7.748,1.549,9.157c0.426,0.854,0.388,1.911-0.113,2.454
			c-0.327,0.361-0.854,0.501-1.575,0.221c-4.419-1.698-5.494-12.816-5.494-14.086c0-0.62,1.083-1.172,2.188-1.58
			c1.103-0.398,2.224-0.649,2.313-0.666l0.005-0.004L415,746.386c-0.029-0.109-0.492-1.735,1.274-3.095
			c1.83-1.409,2.959-0.705,2.959-0.705s0-3.239,0.984-4.368c0.985-1.125,4.369-1.125,4.369-1.125
			c0.562-1.69,1.262-3.523,3.237-4.084c1.969-0.564,2.959,2.11,2.959,2.11s0.702,4.228,1.127,7.888
			C432.331,746.671,434.165,754.134,431.911,754.839"/>
		<path clip-path="url(#SVGID_7_)" fill="#F09087" d="M417.57,762.506c-0.748-0.781-1.58-1.906-2.373-3.532
			c-1.767-3.604-2.472-8.797-2.51-11.913c1.104-0.398,2.225-0.649,2.314-0.666c-0.026,0.055-0.175,0.577,1.133,4.5
			c-0.424,2.959,0.845,7.748,1.55,9.157C418.109,760.905,418.07,761.963,417.57,762.506"/>
		<path clip-path="url(#SVGID_7_)" fill="#F09087" d="M424.443,753.009c-0.374,0.819-0.79,1.448-1.27,1.847
			c-1.554-1.35-3.404-4.317-3.565-10.813C419.608,744.043,420.452,749.019,424.443,753.009"/>
		<path clip-path="url(#SVGID_7_)" fill="#F09087" d="M429.091,752.444c0,0-0.637,0.815-1.914,1.023
			c-2.421-4.959-2.568-9.663-2.217-14.027C425.712,742.819,429.091,752.444,429.091,752.444"/>
		<path clip-path="url(#SVGID_7_)" fill="#FFFFFF" d="M445.292,833.3l-2.822,2.352c-0.87,0.726-1.313,1.841-1.174,2.965
			c0.394,3.17,0.1,10.013-0.006,13.149c-0.141,4.226-4.76,14.108-5.322,19.32c-0.564,5.212,1.999,11.996,4.533,17.349
			c2.536,5.353,9.017,8.958,9.017,8.958s4.93,0.281,6.198-1.409C452.476,879.08,449.941,836.54,445.292,833.3"/>
		<path clip-path="url(#SVGID_7_)" fill="#40405A" d="M472.197,853.161c-2.254,4.085-4.79,19.297-6.055,26.625
			c-1.271,7.323-8.313,19.295-13.242,16.056c-2.297-1.511-5.053-5.71-7.387-10.32c-0.646-1.278-1.257-2.586-1.821-3.881
			c-1.763-4.054-3.019-7.942-3.188-10.168c-0.425-5.493,5.213-17.325,5.354-22.818c0.14-5.494-1.834-14.086-0.565-15.355
			c1.271-1.266,13.382-9.858,13.382-9.858s3.273,5.999,6.818,13.148c0.429,0.861,0.858,1.74,1.291,2.628
			C471.052,848.034,473.36,851.052,472.197,853.161"/>
		<path clip-path="url(#SVGID_7_)" fill="#2F2D44" d="M466.783,839.217c-3.694,4.679-7.693,10.435-8.954,14.791
			c-2.534,8.732-2.818,13.241-5.354,20.564c-1.672,4.827-4.937,8.801-6.961,10.949c-0.646-1.278-1.257-2.586-1.821-3.88
			c2.458-2.387,5.035-5.218,5.969-7.35c1.97-4.509,3.099-12.681,5.069-21.414c1.011-4.462,6.058-10.982,10.762-16.289
			C465.92,837.45,466.349,838.329,466.783,839.217"/>
		<path clip-path="url(#SVGID_7_)" fill="#FFFFFF" d="M459.157,849.716l13.449,10.034c1.654,1.233,4.027,0.588,4.828-1.314
			c0.392-0.93,0.054-2.007-0.8-2.546l-15.14-9.574c-1.224-0.774-2.844-0.08-3.128,1.341
			C458.21,848.438,458.518,849.239,459.157,849.716"/>
		<path clip-path="url(#SVGID_7_)" fill="#FFFFFF" d="M451.269,867.746c2.158,1.611,4.317,3.222,6.478,4.833
			c1.526,1.139,3.053,2.278,4.581,3.417c0.827,0.617,1.748,1.564,2.711,1.968c1.142,0.478,2.611,0.03,3.266-1.027
			c2.085-3.368-5.07-6.43-7.145-7.757c-2.518-1.611-5.035-3.223-7.553-4.834c-1.225-0.774-2.845-0.08-3.129,1.341
			C450.322,866.468,450.629,867.27,451.269,867.746"/>
		<path clip-path="url(#SVGID_7_)" fill="#FFFFFF" d="M454.273,859.013c2.248,1.678,4.496,3.354,6.744,5.031
			c1.542,1.15,3.084,2.301,4.625,3.451c1.131,0.843,2.477,2.311,3.985,1.95c0.377-0.091,0.733-0.264,1.028-0.52
			c0.813-0.706,1.097-1.932,0.753-2.952c-0.515-1.525-2.544-2.613-3.843-3.435c-1.61-1.019-3.222-2.037-4.832-3.055
			c-2.041-1.291-4.082-2.581-6.123-3.872c-1.224-0.774-2.844-0.08-3.127,1.341C453.328,857.734,453.634,858.536,454.273,859.013"/>
		<path clip-path="url(#SVGID_7_)" fill="#40405A" d="M427.626,939.744h-85.469c-1.991,0-3.409-1.932-2.806-3.829
			c0.166-0.519,0.352-1.067,0.564-1.618c0.964-2.538,2.419-5.213,4.471-6.199c4.321-2.063,11.832-5.633,18.973-11.079
			c7.136-5.447,10.138-8.453,10.138-8.453c3.384-2.641,11.085-3.939,19.002-4.009c1.097-0.007,2.199,0.006,3.291,0.043
			c8.991,0.307,17.529,2.183,19.593,5.469c2.853,4.543,7.611,16.978,10.273,24.229C426.85,937.541,427.626,939.744,427.626,939.744"
			/>
		<path clip-path="url(#SVGID_7_)" fill="#2F2D44" d="M395.791,904.601c-5.634,6.542-12.686,14.035-17.971,17.3
			c-9.188,5.685-14.219,6.606-19.182,17.844h-3.01c1.537-3.38,3.897-7.562,6.602-9.956c4.883-4.317,18.218-12.205,24.98-19.342
			c1.698-1.792,3.52-3.838,5.289-5.889C393.595,904.55,394.7,904.563,395.791,904.601"/>
		<path clip-path="url(#SVGID_7_)" fill="#FFFFFF" d="M361.48,920.316l7.821,5.339c0.817,0.558,1.905,0.506,2.665-0.128
			c1.08-0.9,1.059-2.566-0.046-3.438l-7.263-5.734c-0.771-0.608-1.851-0.637-2.651-0.068l-0.559,0.396
			C360.189,917.573,360.206,919.446,361.48,920.316"/>
		<path clip-path="url(#SVGID_7_)" fill="#FFFFFF" d="M368.617,915.057l7.821,5.34c0.817,0.557,1.906,0.505,2.665-0.128
			c1.081-0.9,1.06-2.566-0.045-3.438l-7.264-5.734c-0.771-0.608-1.851-0.636-2.651-0.068l-0.559,0.396
			C367.326,912.314,367.342,914.188,368.617,915.057"/>
		<path clip-path="url(#SVGID_7_)" fill="#FFFFFF" d="M427.626,939.744h-85.469c-1.991,0-3.409-1.932-2.806-3.829
			c0.166-0.519,0.352-1.067,0.564-1.618h85.74C426.85,937.541,427.626,939.744,427.626,939.744"/>
		<path clip-path="url(#SVGID_7_)" fill="#FFFFFF" d="M375.576,909.157l7.686,5.245c0.802,0.548,1.871,0.497,2.618-0.125
			c1.061-0.885,1.04-2.521-0.045-3.378l-7.137-5.634c-0.758-0.599-1.817-0.626-2.604-0.068l-0.549,0.389
			C374.307,906.462,374.323,908.303,375.576,909.157"/>
		<path clip-path="url(#SVGID_7_)" fill="#FCB912" d="M565.447,710.045c-0.188,20.85-1.504,62.918-3.944,65.736
			c-2.441,2.819-106.679,3.57-109.686-0.187c-3.006-3.758,14.464-35.31,14.464-35.31s-2.44-0.938-3.569-1.881
			c-1.125-0.938,1.315-4.882,1.315-4.882s-3.57-0.938-4.131-1.689c-0.564-0.752,3.944-6.572,3.944-6.572
			s-13.899-47.706-15.967-53.53c-2.063-5.82-6.759-20.846-4.318-23.664c1.707-1.97,11.255-6.567,16.833-9.153
			c2.395-1.108,4.059-1.847,4.059-1.847s47.847-9.472,49.592-9.548c0.416-0.018,2.908,0.691,6.49,1.8
			c11.459,3.554,34.054,11.217,35.34,12.362C557.558,643.184,565.633,689.2,565.447,710.045"/>
		<path clip-path="url(#SVGID_7_)" fill="#F68E1E" d="M520.529,629.318c-3.727,8.05-11.775,19.47-27.837,21.342
			c-17.083,1.991-27.413-6.232-32.304-11.747c2.395-1.108,4.059-1.847,4.059-1.847s47.847-9.472,49.592-9.548
			C514.455,627.501,516.947,628.21,520.529,629.318"/>
		<path clip-path="url(#SVGID_7_)" fill="#FFFFFF" d="M469.662,717.371l0.004-0.059C469.644,717.331,469.641,717.35,469.662,717.371
			"/>
		<path clip-path="url(#SVGID_7_)" fill="#F68E1E" d="M536.128,708.105c2.441-2.629-0.353-26.129-5.423-28.946
			c-2.536-1.407-18.434,4.687-31.182,5.344s-30.995-1.059-32.31,1.29c-2.63,4.695,2.063,22.383,3.561,24.32
			C472.272,712.05,533.687,710.735,536.128,708.105"/>
		<path clip-path="url(#SVGID_7_)" fill="#1A7DB9" d="M559.061,804.871c-5.888,12.172-26.071,12.57-46.941,12.401
			c-1.771-0.013-3.545-0.03-5.319-0.048c-6.603-0.059-13.153-0.08-19.232,0.294c-26.945,1.651-80.29-10.448-78.638-8.797
			c1.646,1.647,10.448,84.692,18.696,129.787c-2.386-3.494-8.125-7.345-15.088-11.056c-0.772-0.407-1.559-0.814-2.355-1.223
			c-16.94-8.626-39.313-16.162-39.313-16.162l3.413-12.809c0,0-13.929-105.876-13.929-109.175c0-3.304-3.384-29.303,16.621-31.557
			c25.969-2.925,101.797,13.148,101.797,13.148s13.802-0.51,29.989-0.827c1.74-0.035,3.515-0.069,5.299-0.099
			c20.072-0.322,41.842-0.25,45.001,1.474C565.111,773.522,567.31,787.821,559.061,804.871"/>
		<path clip-path="url(#SVGID_7_)" fill="#1A68A4" d="M408.928,808.721c-0.401-1.03-6.599-12.401-5.754-14.559
			c0.845-2.156,5.353,6.471,5.353,6.471s2.818-9.804,5.635-7.45C416.979,795.535,408.928,808.721,408.928,808.721"/>
		<path clip-path="url(#SVGID_7_)" fill="none" stroke="#FFFFFF" stroke-width="2" stroke-miterlimit="10" d="M510.183,796.555
			c-9.552,0.14-19.108-0.604-28.644-1.185c-9.535-0.582-19.092-0.765-28.631-1.282c-8.546-0.463-17.097-0.93-25.643-1.393
			c-4.198-0.229-8.397-0.492-12.592-0.785c-4.229-0.292-8.58-0.922-12.821-0.777c-3.643,0.127-6.733,1.188-7.511,5.082
			c-0.679,3.409,0.242,7.052,0.781,10.418c1.342,8.363,2.581,16.744,3.842,25.12c2.569,17.028,5.155,34.049,7.621,51.094
			c2.148,14.847,3.906,29.752,5.952,44.606c-0.772-0.407-1.558-0.814-2.356-1.223c-1.286-7.374-2.675-14.735-3.927-22.118
			c-1.677-9.888-3.252-19.792-4.836-29.697c-2.836-17.703-5.493-35.437-8.227-53.156c-0.667-4.326-1.325-8.652-1.953-12.983
			c-0.522-3.621-1.274-7.289-0.994-10.966c0.234-3.069,1.575-5.973,4.246-7.654c2.844-1.792,6.185-1.575,9.398-1.452
			c17.691,0.696,35.377,1.363,53.064,2.179c8.949,0.411,17.877,1.142,26.831,1.498c8.847,0.349,17.72,0.582,26.521,1.601
			C512.042,793.68,511.924,796.528,510.183,796.555z"/>
		<path clip-path="url(#SVGID_7_)" fill="none" stroke="#FFFFFF" stroke-width="2" stroke-miterlimit="10" d="M514.06,768.751
			c-0.09,1.257-0.175,2.514-0.25,3.762c-0.45,7.429-0.918,14.846-1.211,22.279c-0.293,7.404-0.382,14.805-0.476,22.208
			c0,0.089-0.004,0.183-0.004,0.272c-1.771-0.013-3.545-0.03-5.32-0.047c-0.089-7.442,0.09-14.897,0.354-22.331
			c0.267-7.497,0.675-15.004,1.303-22.479c0.098-1.181,0.2-2.373,0.306-3.566C510.501,768.814,512.277,768.78,514.06,768.751z"/>
		<path clip-path="url(#SVGID_7_)" fill="#1A68A4" d="M380.073,774.561c1.973,2.536-5.07,18.876-9.016,18.03
			c-3.943-0.845-7.324-13.805-6.197-17.185C365.987,772.025,378.101,772.025,380.073,774.561"/>
		<path clip-path="url(#SVGID_7_)" fill="#3985C3" d="M584.322,805.83c-7.323,10.427-38.875,23.385-62.824,32.682
			c-23.944,9.298-43.104,26.763-43.104,26.763s-8.452-1.409-16.34-11.831c-3.995-5.281-5.315-13.089-5.647-19.508
			c-0.059-1.15-0.084-2.25-0.089-3.286c-0.024-4.619,0.388-7.914,0.388-7.914c22.818-12.676,94.655-50.711,102.356-52.51
			c2.429-0.57,5.166-1.075,8.015-1.232c1.508-0.081,3.049-0.063,4.595,0.098c4.771,0.496,9.564,2.355,13.496,6.877
			C592.774,784.701,591.649,795.408,584.322,805.83"/>
		<path clip-path="url(#SVGID_7_)" fill="none" stroke="#FFFFFF" stroke-width="2" stroke-miterlimit="10" d="M571.669,769.091
			c-27.629,14.227-81.324,46.619-87.643,50.266c-5.162,2.98-19.571,10.439-27.62,14.579c-0.06-1.15-0.085-2.25-0.09-3.286
			c5.469-2.344,15.029-6.5,27.995-13.832c13.331-7.535,61.855-37.236,82.765-47.824C568.583,768.912,570.125,768.93,571.669,769.091
			z"/>
		<path clip-path="url(#SVGID_7_)" fill="#FFBDF2" d="M593.054,730.33c-0.561,5.634-3.095,10.422-17.746,20.004
			c-14.651,9.578-54.375,13.521-54.375,13.521l-7.06-13.021l46.22-22.194l-1.291-6.729l-2.653-13.836l27.893-9.862
			C584.042,698.213,593.619,724.696,593.054,730.33"/>
		<path clip-path="url(#SVGID_7_)" fill="#FCB912" d="M555.869,641.681c-8.293-2.977-14.942,19.449-12.754,35.04
			c2.188,15.59,11.761,39.113,11.486,38.292c-0.272-0.82,37.474-14.496,37.474-14.496S570.263,646.849,555.869,641.681"/>
		<path clip-path="url(#SVGID_7_)" fill="#F995EB" d="M518.382,748.111c0,0,4.977,4.085,5.118,11.832
			c0.141,7.747-14.509,5.494-19.298-2.254C506.315,748.252,518.382,748.111,518.382,748.111"/>
		<path clip-path="url(#SVGID_7_)" fill="#D195C9" d="M486.83,759.005c-0.752,0.281-8.922,0.281-9.58,1.221
			c-0.656,0.938,1.128,5.07,8.547,4.695c7.419-0.376,8.17-4.695,8.17-4.695s3.863,2.017,6.572,2.348
			c3.852,0.469,6.293-1.127,6.293-1.127s8.546,3.381,10.049,1.69c1.502-1.69,1.502-7.795-3.006-12.302
			c-4.508-4.508-11.081-5.917-14.181-4.79C496.596,747.172,487.58,758.723,486.83,759.005"/>
		<path clip-path="url(#SVGID_7_)" fill="#FFBDF2" d="M518.382,748.111c-0.942-2.255-3.663,0.094-3.663,0.094
			s0.373-3.101-2.44-4.132c-1.074-0.395-3.1,1.784-3.1,1.784s0.327-3.803-1.176-4.367c-1.498-0.564-4.271,0.984-4.271,0.984
			s-1.002-0.322-2.41-0.657c-1.334-0.318-4.452,1.093-5.666,2.068c-4.318,3.475-6.574,9.674-7.325,12.866
			c-0.002,0.008-0.004,0.016-0.007,0.023c-0.262,1.111,0.531,2.191,1.672,2.25l0.27,0.014c0.696,0.035,1.35-0.326,1.692-0.933
			c2.149-3.796,6.67-9.434,7.551-9.336l2.301,0.255c-0.004,0.005-0.004,0.005-0.004,0.009c-0.11,0.374-4.25,14.494-2.768,15.793
			c1.503,1.316,2.301,1.15,3.567-1.033c1.691-2.911,5.071-13.241,5.071-13.241s-1.594,13.899-0.469,14.838
			c1.129,0.942,1.782,1.315,3.099,0c1.316-1.313,3.098-12.772,3.098-12.772s0.565,13.523,3.007,13.523
			C518.851,766.142,519.32,750.365,518.382,748.111"/>
		<path clip-path="url(#SVGID_7_)" fill="#F995EB" d="M503.732,742.475c0,0-0.798,0.565-1.923,6.551l-2.301-0.255l1.813-6.953
			C502.73,742.152,503.732,742.475,503.732,742.475"/>
		<polygon clip-path="url(#SVGID_7_)" fill="#40405A" points="350.07,700.749 353.591,697.368 461.491,698.214 484.874,768.645 
			482.338,772.166 		"/>
		<polygon clip-path="url(#SVGID_7_)" fill="#40405A" points="350.07,700.749 459.097,701.172 482.338,772.166 373.875,768.926 		
			"/>
		<polygon clip-path="url(#SVGID_7_)" fill="#2F2D44" points="482.339,772.166 549.859,772.166 549.859,766.203 482.996,766.203 		
			"/>
		<path clip-path="url(#SVGID_7_)" fill="#2F2D44" d="M425.592,744.685h-21.614c-2.538,0-4.82-1.55-5.755-3.909
			c-1.611-4.064,1.383-8.474,5.755-8.474h21.614c2.539,0,4.819,1.55,5.755,3.909C432.959,740.275,429.964,744.685,425.592,744.685"
			/>
		<path clip-path="url(#SVGID_7_)" fill="#FFBDF2" d="M514.039,627.519c0,0-6.755,18.705-26.543,18.396
			c-14.901-0.234-23.048-8.849-23.048-8.849s8.38-3.728,9.543-7.218c0.463-1.392,0.226-4.78-0.229-8.351
			c-0.684-5.392-1.864-11.208-1.864-11.208l22.365-11.807c0,0,0.577,3.89,1.707,8.504v0.004c1.357,5.523,3.511,12.087,6.427,14.244
			C507.755,625.191,514.039,627.519,514.039,627.519"/>
		<path clip-path="url(#SVGID_7_)" fill="#F995EB" d="M495.97,606.987v0.004c-1.694,3.006-4.398,6.505-8.694,9.451
			c-5.783,3.969-10.563,4.933-13.515,5.056c-0.683-5.392-1.862-11.208-1.862-11.208l22.364-11.807
			C494.263,598.483,494.84,602.373,495.97,606.987"/>
		<path clip-path="url(#SVGID_7_)" fill="#F995EB" d="M448.25,593.962c0,2.335,3.113,7.784,6.281,9.022
			c2.918,1.143,4.688,0.884,4.688,0.884s-0.058-0.471-0.186-1.245c-0.045-0.271-0.099-0.586-0.163-0.932
			c-0.793-4.332-3.046-13.557-7.718-12.687C448.666,589.47,448.25,591.626,448.25,593.962"/>
		<path clip-path="url(#SVGID_7_)" fill="#2F2D44" d="M439.235,579.514c0,0,22.726,18.5,71.37,12.96
			C493.889,576.791,466.562,562.517,439.235,579.514"/>
		<path clip-path="url(#SVGID_7_)" d="M457.078,595.385c0,0-3.381-2.442-4.79-4.79c-1.408-2.348,0.188-11.55,0.188-11.55
			s-4.413,5.07-4.602,3.38c-0.188-1.69,5.447-9.766,5.447-9.766s-2.066-6.198-1.034-7.044c1.034-0.845,2.818,2.817,2.818,2.817
			s3.381-7.982,10.893-8.733c7.513-0.751,30.802,4.79,35.028,14.649c4.226,9.86,0.281,21.13,0.188,21.411
			C501.12,596.042,473.887,602.615,457.078,595.385"/>
		<path clip-path="url(#SVGID_7_)" fill="#FFBDF2" d="M494.828,591.721c0,0-0.102,1.329-0.311,3.766
			c-0.071,0.862-0.156,1.864-0.254,2.997c-0.374,4.318-1.877,9.014-7.889,12.771c-6.006,3.758-12.205,6.763-20.093,6.576
			c-6.271-0.152-9.816-20.607-11-28.979c-0.311-2.16-0.458-3.515-0.458-3.515s3.757-2.814,6.576-7.701
			c5.819,6.198,24.224,3.57,24.224,3.57s-0.187,1.503,0.751,3.757c0.943,2.255,4.696,2.063,4.696,2.063l0.564,3.57L494.828,591.721z
			"/>
		<path clip-path="url(#SVGID_7_)" fill="#40405A" d="M510.604,592.473c0,0-11.081-11.454-35.118-15.398
			c-23.754-3.897-35.959,2.288-36.248,2.437c2.441-5.442,11.076-9.387,11.076-9.387s0.888-3.413,2.105-6.979
			c0.889-2.576,1.945-5.234,2.969-6.732c2.44-3.566,21.787-7.323,30.235-5.069c8.453,2.254,19.159,14.086,20.476,16.527
			c0.688,1.277,0.242,4.458-0.335,7.2c-0.527,2.496-1.167,4.632-1.167,4.632L510.604,592.473z"/>
		<path clip-path="url(#SVGID_7_)" d="M505.764,575.07c-0.527,2.496-1.167,4.632-1.167,4.632s-10.521-4.694-25.732-8.826
			c-15.216-4.136-28.551-0.752-28.551-0.752s0.887-3.413,2.106-6.979c4.874-1.197,11.521-2.105,18.93-1.1
			C484.66,563.854,501.701,572.846,505.764,575.07"/>
		<path clip-path="url(#SVGID_7_)" fill="#2F2D44" d="M483.748,552.375c1.126,0.845-3.1,3.943-4.602,4.132
			c-1.502,0.188-10.049-0.846-10.33-1.784C468.535,553.783,482.621,551.529,483.748,552.375"/>
		<path clip-path="url(#SVGID_7_)" fill="#F995EB" d="M505.542,591.19c0,2.827-3.77,9.423-7.604,10.922
			c-3.531,1.383-5.674,1.069-5.674,1.069s0.07-0.569,0.226-1.507c0.054-0.329,0.12-0.709,0.198-1.127
			c0.959-5.244,3.687-16.41,9.341-15.356C505.04,585.754,505.542,588.363,505.542,591.19"/>
		<path clip-path="url(#SVGID_7_)" fill="#40405A" d="M317.006,633.009h-192.82c-3.444,0-6.235-2.791-6.235-6.234v-12.264
			c0-3.443,2.791-6.235,6.235-6.235h192.82c3.443,0,6.234,2.792,6.234,6.235v12.264C323.24,630.218,320.449,633.009,317.006,633.009
			"/>
		<path clip-path="url(#SVGID_7_)" fill="#171826" d="M131.754,613.818h178.067c3.768,0,6.824,3.055,6.824,6.823v0.001
			c0,3.769-3.056,6.824-6.824,6.824H131.754"/>
		<path clip-path="url(#SVGID_7_)" fill="#8BC540" d="M238.211,620.645c0,1.883-0.764,3.585-1.994,4.821
			c-1.236,1.236-2.938,2-4.827,2h-99.635c-0.578,0-1.143-0.075-1.677-0.211c-2.964-0.746-5.151-3.424-5.151-6.61
			c0-1.882,0.765-3.59,2.001-4.826c1.237-1.236,2.945-2,4.827-2h99.635c0.062,0,0.124,0,0.187,0.006
			C235.26,613.916,238.211,616.937,238.211,620.645"/>
		<path clip-path="url(#SVGID_7_)" fill="#37B34A" d="M141.917,613.818l-2.907,13.647h-7.256c-0.577,0-1.143-0.075-1.677-0.21
			l2.864-13.438H141.917z"/>
		<polygon clip-path="url(#SVGID_7_)" fill="#37B34A" points="159.852,613.818 156.945,627.466 147.962,627.466 150.869,613.818 		
			"/>
		<polygon clip-path="url(#SVGID_7_)" fill="#37B34A" points="177.78,613.818 174.873,627.466 165.896,627.466 168.803,613.818 		
			"/>
		<polygon clip-path="url(#SVGID_7_)" fill="#37B34A" points="195.714,613.818 192.807,627.466 183.831,627.466 186.737,613.818 		
			"/>
		<polygon clip-path="url(#SVGID_7_)" fill="#37B34A" points="213.648,613.818 210.741,627.466 201.758,627.466 204.666,613.818 		
			"/>
		<path clip-path="url(#SVGID_7_)" fill="#37B34A" d="M231.577,613.824l-2.908,13.642h-8.976l2.907-13.647h8.79
			C231.452,613.818,231.515,613.818,231.577,613.824"/>
		<path clip-path="url(#SVGID_7_)" fill="#C12156" d="M207.985,742.377l19.571,44.969l19.289-16.905l12.788,3.685
			c0,0-7.369,27.525-22.541,41.613c-15.171,14.088-33.234-4.129-41.397-20.59C182.692,768.923,194.483,739.888,207.985,742.377"/>
		<path clip-path="url(#SVGID_7_)" fill="#D893CF" d="M251.751,757.584c0,0-5.408,7.612-6.257,11.575l-0.849,3.962
			c0,0,4.38,2.23,7.352,2.089c2.972-0.142,4.245-1.133,4.245-1.133s4.67,0.85,5.378,0.425s2.123-6.227,2.123-6.227L251.751,757.584z
			"/>
		<path clip-path="url(#SVGID_7_)" fill="#D893CF" d="M261.868,766.958c0,0,1.959-1.691,3.428-1.432
			c1.47,0.261,7.469,7.286,6.735,8.065c-0.735,0.781-4.531-1.561-7.102-4.943c-1.592,0.391-2.816,0.65-2.816,0.65L261.868,766.958z"
			/>
		<path clip-path="url(#SVGID_7_)" fill="#FFBDF2" d="M265.97,776.52c-1.653-0.195-5.143-7.221-5.143-7.221s0.184,9.172-1.285,8.392
			c-1.47-0.78-3.857-11.709-3.857-11.709s0.918,12.685-0.919,11.514c-1.836-1.171-3.489-12.489-3.489-12.489
			s-0.248-2.279-0.524-4.991c-0.096-0.94,0.262-1.898,0.999-2.431c0.236-0.171,0.448-0.24,0.627-0.188
			c2.02,0.586,2.571,1.366,3.122,3.317c3.122,0,3.306,1.171,4.041,3.708c2.203-0.391,2.387,0.39,3.489,2.146
			C264.133,768.323,267.623,776.715,265.97,776.52"/>
		<path clip-path="url(#SVGID_7_)" fill="#FFBDF2" d="M248.14,773.202c-1.115,0.474-2.384,0.405-3.494-0.081
			c-1.64-0.718-2.289-2.428-3.12-5.129c-0.596-1.937,0.849-7.075,0.849-7.643c0-0.565,0.141-4.669,1.273-5.235
			c1.133-0.565,2.548,3.396,2.548,5.803c0,0.2-0.013,0.41-0.036,0.628c-0.279,2.58,0.646,5.173,2.669,6.798
			c0.353,0.284,0.665,0.634,0.904,1.064C250.677,771.105,249.67,772.553,248.14,773.202"/>
		<polygon clip-path="url(#SVGID_7_)" fill="#FFBDF2" points="397.437,885.597 381.423,906.327 366.713,897.059 349.553,886.25 
			334.312,876.646 355.514,853.093 366.072,861.278 380.528,872.486 		"/>
		<path clip-path="url(#SVGID_7_)" fill="#EF515F" d="M366.072,861.278c-4.229,6.44-10.52,15.934-16.52,24.972l-15.24-9.604
			l21.202-23.554L366.072,861.278z"/>
		<path clip-path="url(#SVGID_7_)" fill="#FFFFFF" d="M397.437,885.597l-16.014,20.73l-14.71-9.269
			c5.587-9.888,11.284-20.047,13.814-24.572L397.437,885.597z"/>
		<path clip-path="url(#SVGID_7_)" fill="#2F2D44" d="M460.912,883.299c0,0-5.621,4.723-13.938,11.702
			c-0.608,0.513-1.23,1.036-1.87,1.574c-3.572,2.999-7.558,6.35-11.763,9.879c-9.845,8.271-20.868,17.529-30.461,25.581
			c-1.409-0.825-2.785-2.187-4.122-3.805c-3.823-4.629-7.325-11.385-10.457-13.889c-4.226-3.38-15.019-4.022-15.019-4.022
			s3.638-8.583,7.327-17.683c0.274-0.675,0.549-1.354,0.823-2.038c2.041-5.071,4.017-10.119,5.311-13.757
			c4.527,3.407,24.824,9.093,28.874,9.293c2.781,0.141,7.34-1.344,13.957-3.159c3.011-0.825,6.45-1.72,10.345-2.559
			c6.593-1.421,12.092-0.528,15.808,0.628C459.023,882.069,460.912,883.299,460.912,883.299"/>
		<path clip-path="url(#SVGID_7_)" fill="#2F2D44" d="M446.974,895.001c-0.609,0.513-1.23,1.036-1.871,1.574
			c-2.564-1.643-5.872-3.516-8.206-3.97c-4.362-0.853-23.376,5.963-26.745,6.549c-4.228,0.729-23.938-4.882-29.542-6.518
			c0.272-0.675,0.549-1.354,0.821-2.038c6.312,1.676,23.729,6.205,28.418,6.339c5.758,0.158,24.164-8.591,29.843-6.026
			C442.315,892.095,444.927,893.661,446.974,895.001"/>
		<path clip-path="url(#SVGID_7_)" fill="#FFFFFF" d="M460.912,883.299c0,0-33.647,28.259-58.032,48.736
			c-1.409-0.825-2.785-2.187-4.122-3.805l56.969-47.186C459.023,882.069,460.912,883.299,460.912,883.299"/>
		<path clip-path="url(#SVGID_7_)" fill="#FFFFFF" d="M460.912,883.299c0,0-12.383,10.401-27.571,23.155
			c-6.11-9.722-5.339-18.246-3.767-23.479c3.011-0.825,6.45-1.72,10.345-2.559c6.593-1.421,12.092-0.528,15.808,0.628
			C459.023,882.069,460.912,883.299,460.912,883.299"/>
		<path clip-path="url(#SVGID_7_)" fill="#2F2D44" d="M170.847,931.293c0,0,42.869,7.066,61.241-0.471
			c18.373-7.537,74.432-62.654,74.432-62.654l31.092,17.901l22.612-34.86c0,0-48.051-40.043-53.705-42.869
			C300.867,805.514,174.145,915.276,170.847,931.293"/>
		<path clip-path="url(#SVGID_7_)" fill="#F92B66" d="M129.305,870.873l5.379-30.002c-13.021-48.398-16.982-75.569-9.34-93.965
			c7.242-17.436,10.189-24.059,16.132-26.037c2.098-0.696,5.97-1.205,10.104-1.566c7.583-0.662,16.04-0.841,16.04-0.841
			s12.914,4.105,14.044,5.235c0.692,0.691,10.261,6.139,17.665,11.11c4.712,3.167,8.546,6.139,8.656,7.569
			c0.285,3.681,4.246,26.605,4.53,29.438c0.285,2.827,5.095,14.15,6.793,21.792c1.698,7.642-10.94,29.519-11.505,30.367
			c-0.187,0.28,1.715,5.417,4.36,12.201c5.417,13.9,13.937,34.698,13.937,34.698H129.305z"/>
		<polygon clip-path="url(#SVGID_7_)" fill="#2F2D44" points="225.324,804.591 227.616,809.509 307.686,786.76 321.574,699.423 
			315.63,700.271 302.025,781.099 		"/>
		<polygon clip-path="url(#SVGID_7_)" fill="#FFBDF2" points="365.154,892.184 347.263,909.624 323.234,886.443 309.767,873.452 
			296.73,860.878 317.385,833.033 333.147,854.416 344.754,868.111 		"/>
		<polygon clip-path="url(#SVGID_7_)" fill="#EF515F" points="333.147,854.416 309.768,873.452 296.73,860.878 317.385,833.033 		
			"/>
		<path clip-path="url(#SVGID_7_)" fill="#FFFFFF" d="M365.154,892.184l-17.891,17.44l-24.029-23.181
			c4.657-4.059,16.115-13.764,21.521-18.332L365.154,892.184z"/>
		<path clip-path="url(#SVGID_7_)" fill="#40405A" d="M329.038,844.711c0,0-9.034,7.952-20.353,17.687
			c-0.963,0.832-1.944,1.673-2.938,2.521c-1.698,1.461-3.434,2.946-5.183,4.437c-7.668-6.024-21.667-24.452-21.667-24.452
			s-0.862,1.309-2.42,3.597c-9.484,13.954-44.861,64.441-69.324,78.553c-28.479,16.429-62.981,9.858-73.934-9.311
			c-5.977-10.465-6.598-23.473-5.922-33.127c0.556-8.032,2.008-13.742,2.008-13.742l47.727,0.318c0,0,88.796-82.532,100.297-78.151
			C288.83,797.422,329.038,844.711,329.038,844.711"/>
		<path clip-path="url(#SVGID_7_)" fill="none" stroke="#FFFFFF" stroke-width="2" stroke-miterlimit="10" d="M308.685,862.397
			c-0.964,0.832-1.944,1.673-2.938,2.521c-8.062-7.361-35.494-36.008-38.678-38.834c-10.189,4.458-19.104,14.857-46.7,47.548
			c-18.111,21.453-31.832,30.928-41.164,34.549c-7.145,2.772-15.313,0.727-20.089-5.263c-0.828-1.033-1.155-1.69-1.155-1.69
			s-8.703-14.223-9.34-30.143c19.105,0.212,28.411,0.105,28.411,0.105s4.703,18.247-10.431,27.608
			c-2.081,1.286-2.127,4.296-0.068,5.612c2.105,1.346,2.678,1.062,2.678,1.062s10.402,1.698,26.322-12.949
			c15.921-14.646,45.095-49.624,50.521-55.189c8.278-8.491,18.043-14.859,22.713-16.346
			C278.884,830.219,302.287,856.216,308.685,862.397z"/>
		<path clip-path="url(#SVGID_7_)" fill="#2F2D44" d="M278.896,844.903c0,0-0.862,1.309-2.42,3.597l-7.073-11.59L278.896,844.903z"
			/>
		<path clip-path="url(#SVGID_7_)" fill="#2F2D44" d="M279.167,797.688c-4.726-0.944-9.886,3.063-9.603,5.893
			c0.284,2.831,18.728,9.442,19.86,6.329C290.557,806.796,283.413,798.537,279.167,797.688"/>
		<path clip-path="url(#SVGID_7_)" fill="#40405A" d="M419.589,914.601c0,0-7.128,1.754-17.674,4.339
			c-0.771,0.191-1.562,0.387-2.373,0.586c-4.529,1.112-9.586,2.356-14.918,3.664c-12.485,3.069-26.466,6.504-38.629,9.488
			c-0.9-1.362-1.533-3.192-2.017-5.234c-1.384-5.842-1.541-13.449-3.243-17.079c-2.297-4.899-11.697-10.243-11.697-10.243
			s7.057-6.094,14.389-12.627c0.543-0.484,1.091-0.973,1.639-1.465c4.071-3.646,8.074-7.302,10.843-9.994
			c2.556,5.057,18.251,19.126,21.796,21.096c2.433,1.354,7.178,2.038,13.916,3.333c3.065,0.59,6.547,1.308,10.41,2.275
			c6.542,1.639,11.08,4.869,13.904,7.55C418.44,912.665,419.589,914.601,419.589,914.601"/>
		<path clip-path="url(#SVGID_7_)" fill="#2F2D44" d="M401.916,918.939c-0.771,0.191-1.562,0.387-2.373,0.586
			c-1.574-2.606-3.715-5.748-5.607-7.188c-3.537-2.691-23.605-4.979-26.887-5.943c-4.113-1.214-19.316-14.957-23.621-18.9
			c0.543-0.484,1.091-0.973,1.639-1.465c4.92,4.292,18.543,16.052,22.691,18.242c5.095,2.688,25.473,2.972,29.434,7.782
			C399.021,914.274,400.672,916.835,401.916,918.939"/>
		<path clip-path="url(#SVGID_7_)" fill="#FFFFFF" d="M419.589,914.601c0,0-42.671,10.482-73.594,18.077
			c-0.9-1.362-1.533-3.192-2.017-5.234l71.956-17.154C418.44,912.665,419.589,914.601,419.589,914.601"/>
		<path clip-path="url(#SVGID_7_)" fill="#FFFFFF" d="M419.589,914.601c0,0-15.703,3.859-34.965,8.589
			c-1.185-11.42,3.273-18.727,6.996-22.726c3.065,0.59,6.547,1.308,10.41,2.275c6.542,1.639,11.08,4.869,13.904,7.55
			C418.44,912.665,419.589,914.601,419.589,914.601"/>
		<path clip-path="url(#SVGID_7_)" fill="#C12156" d="M218.174,812.002c-0.008,0.004-0.017,0.008-0.025,0.008
			c-2.127,0.688-4.22,1.499-6.164,2.603c-41.839,23.779-78.855,23.1-84.039,17.916c-5.527-5.527-14.171-30.023-13.819-60.396
			c0.497-42.548,23.142-55.131,28.177-48.661c7.005,9.01,7.349,66.425,7.349,66.425s2.764,1.974,4.738,2.764
			c1.974,0.789,0.492,4.147,0.492,4.147s38.816-3.957,49.778-7.795l0.004-0.004c4.619-1.622,9.905,3.044,10.338,3.044l6.402,8.465
			C221.405,800.518,225.841,809.51,218.174,812.002"/>
		<path clip-path="url(#SVGID_7_)" fill="#891843" d="M218.174,812.002c-3.111,0.284-7.073,0.284-12.736-8.771
			c-5.549-8.882-0.964-14.019-0.777-14.219l0.004-0.004c4.619-1.622,9.905,3.044,10.338,3.044l6.402,8.465
			C221.405,800.518,225.841,809.51,218.174,812.002"/>
		<path clip-path="url(#SVGID_7_)" fill="#891843" d="M149.493,796.806c0,0-15.098,6.471-13.66,10.065s10.784-3.954,10.784-3.954
			s-5.683,13.106-1.874,11.22C153.362,811.154,149.493,796.806,149.493,796.806"/>
		<path clip-path="url(#SVGID_7_)" fill="#FFBDF2" d="M248.304,792.292c-0.762,2.081-15.141-6.43-15.141-6.43
			s6.646,5.383,8.531,12.097c0.151,0.54,0.243,0.984,0.189,1.386c-0.143,1.126-1.015,1.755-1.015,1.755s1.183,3.366-0.712,3.041
			c-1.284-0.221-6.227-4.563-9.281-7.345c-1.178-1.069-3.056-0.675-3.704,0.779c-1.676,3.788-4.906,9.686-8.656,9.317
			c-5.497-0.539-9.533-4.182-6.337-11.435c0,0,7.84-17.395,11.755-18.863S249.066,790.211,248.304,792.292"/>
		<path clip-path="url(#SVGID_7_)" fill="#FFBDF2" d="M223.934,776.595c0,0,1.459-1.296,5.385-1.168
			c3.927,0.127,18.635,1.321,18.727,3.347c0.092,2.026-14.91,2.196-18.474,1.346C226.006,779.27,222.867,778.444,223.934,776.595"/>
		<path clip-path="url(#SVGID_7_)" fill="#EF515F" d="M240.869,801.1c0,0-6.688-7.309-9.485-10.346
			C238.682,794.158,240.869,801.1,240.869,801.1"/>
		<path clip-path="url(#SVGID_7_)" d="M238.11,697.944c-1.125,1.771-2.895,17.376-6.916,28.316
			c-4.02,10.937-14.96,16.086-14.96,16.086l-2.692-4.873l-17.742-32.13l-10.133,23.651c0,0-8.593-6.878-18.532-18.692
			c-1.834-2.187-3.719-4.538-5.6-7.048c14.753-16.209,17.534-37.165,39.415-37.487c21.877-0.322,39.576,18.341,40.217,21.72
			C241.812,690.867,238.11,697.944,238.11,697.944"/>
		<path clip-path="url(#SVGID_7_)" d="M238.772,693.765c-3.242,7.835-1.087,16.554-1.802,24.725
			c-0.345,3.939-1.326,7.946-3.767,11.141c-1.234,1.613-2.824,2.981-4.679,3.83c-1.73,0.792-3.607,0.903-5.425,1.376
			c-0.264,0.068-0.266,0.466-0.035,0.574c3.011,1.398,6.73-0.428,9.143-2.316c2.997-2.347,4.845-5.845,5.786-9.482
			c1.087-4.207,0.995-8.54,0.763-12.847c-0.31-5.734-0.701-11.18,0.5-16.828C239.315,693.657,238.888,693.487,238.772,693.765"/>
		<path clip-path="url(#SVGID_7_)" fill="#891843" d="M200.063,740.679c0,7.642-10.189,29.153-17.266,23.774
			c-7.077-5.375-30.283-32.83-31.981-38.209c-0.807-2.547-0.149-5.035,0.764-6.941c7.583-0.662,16.04-0.841,16.04-0.841
			s12.914,4.105,14.044,5.235c0.691,0.691,10.26,6.139,17.665,11.11C199.774,736.79,200.063,738.802,200.063,740.679"/>
		<path clip-path="url(#SVGID_7_)" fill="#FFBDF2" d="M204.236,718.144c0,0-2.866,2.653-5.201,4.564
			c-0.085,0.067-0.17,0.14-0.258,0.221c-2.404,2.122-6.738,7.905-6.534,9.544c0.158,1.265,0.021,2.885,0.952,4.462
			c0.955,1.619,1.205,3.563,0.829,5.404c-1.326,6.489-4.547,11.658-10.166,12.104c-4.917,0.39-18.613-18.502-25.519-28.53
			c-1.631-2.367-0.176-5.599,2.673-5.985c1.807-0.246,4-0.693,6.607-1.465c6.249-1.847,16.727-8.729,22.976-13.08
			c3.091-2.156,5.15-3.689,5.15-3.689s5.095-2.547,6.687-0.212C204.024,703.815,204.236,718.144,204.236,718.144"/>
		<path clip-path="url(#SVGID_7_)" fill="#FFBDF2" d="M226.665,711.882c-0.548,2.038,0,3.728,0.369,4.984
			c0.216,0.743-0.144,1.524-0.845,1.851c-0.573,0.268-1.256,0.484-1.931,0.522c-1.796,0.102-2.675,0.586-3.83,1.966
			c-2.403,2.87-5.973,6.444-7.701,6.669c-5.519,0.705-12.808-8.351-14.082-11.004c-1.273-2.653,0.212-17.512,2.335-17.3
			s30.673-2.229,33.751-2.866c-0.059,1.134-0.259,2.198-0.552,3.201C232.443,705.841,227.302,709.521,226.665,711.882"/>
		<path clip-path="url(#SVGID_7_)" fill="#FFBDF2" d="M194.047,695.644c-0.436,1.889-1.081,6.642,0.849,8.703
			c1.777,1.9,4.547,2.485,4.547,2.485s0.125-0.374,0.307-0.999c0.063-0.221,0.135-0.475,0.211-0.757
			c0.956-3.528,2.569-11.244-1.241-12.265C196.692,692.27,194.685,692.884,194.047,695.644"/>
		<path clip-path="url(#SVGID_7_)" fill="#F995EB" d="M204.306,701.813c3.43-2.63,8.458-1.907,11.232,1.615s2.244,8.51-1.186,11.14
			c-3.429,2.631-8.458,1.907-11.232-1.615C200.346,709.431,200.876,704.442,204.306,701.813"/>
		<path clip-path="url(#SVGID_7_)" fill="#071D24" d="M219.115,709.59c-0.677,0.607-0.996,1.352-0.713,1.661
			c0.282,0.311,1.06,0.07,1.737-0.537c0.676-0.607,0.995-1.353,0.713-1.661C220.569,708.742,219.791,708.983,219.115,709.59"/>
		<path clip-path="url(#SVGID_7_)" fill="#071D24" d="M217.149,721.022c-1.133-0.691-1.753-2.001-1.482-3.313
			c0.038-0.186-0.246-0.264-0.284-0.079c-0.297,1.442,0.369,2.883,1.618,3.646C217.163,721.376,217.31,721.121,217.149,721.022"/>
		<path clip-path="url(#SVGID_7_)" fill="#071D24" d="M223.816,704.14c-0.408,0.463-0.058,1.44,0.782,2.185
			c0.84,0.743,1.852,0.972,2.26,0.509c0.408-0.462,0.058-1.44-0.782-2.184C225.235,703.905,224.224,703.678,223.816,704.14"/>
		<polygon clip-path="url(#SVGID_7_)" fill="#FFBDF2" points="229.212,707.199 228.99,709.052 227.136,722.736 221.031,720.096 		
			"/>
		<polyline clip-path="url(#SVGID_7_)" fill="#F995EB" points="228.99,709.052 227.136,722.736 221.031,720.097 		"/>
		<g opacity="0.69" clip-path="url(#SVGID_7_)">
			<g>
				<defs>
					<rect id="SVGID_8_" x="179.212" y="620" width="172" height="224"/>
				</defs>
				<clipPath id="SVGID_9_">
					<use xlink:href="#SVGID_8_"  overflow="visible"/>
				</clipPath>
				<g clip-path="url(#SVGID_9_)">
					<defs>
						<rect id="SVGID_10_" x="179.212" y="620" width="172" height="224"/>
					</defs>
					<clipPath id="SVGID_11_">
						<use xlink:href="#SVGID_10_"  overflow="visible"/>
					</clipPath>
					<g clip-path="url(#SVGID_11_)">
						<image overflow="visible" width="172" height="224" xlink:href="1F792774.png"  transform="matrix(1 0 0 1 179.2124 620)">
						</image>
					</g>
				</g>
			</g>
		</g>
		<path clip-path="url(#SVGID_7_)" fill="#300D59" d="M472.41,596.112c0.27,0.862,0.157,1.657-0.25,1.774
			c-0.405,0.117-0.953-0.487-1.222-1.351s-0.157-1.657,0.249-1.774C471.593,594.644,472.141,595.249,472.41,596.112"/>
		<path clip-path="url(#SVGID_7_)" fill="#300D59" d="M460.792,599.394c0.269,0.863,0.157,1.657-0.249,1.775
			c-0.407,0.117-0.954-0.487-1.223-1.351c-0.27-0.862-0.157-1.658,0.249-1.775S460.523,598.53,460.792,599.394"/>
		<path clip-path="url(#SVGID_7_)" fill="#0D0C26" d="M468.148,607.103c1.457,0.002,2.803-0.867,3.295-2.256
			c0.064-0.178-0.219-0.254-0.28-0.077c-0.45,1.263-1.695,2.042-3.015,2.04C467.959,606.81,467.959,607.103,468.148,607.103"/>
		<path clip-path="url(#SVGID_7_)" fill="#F995EB" d="M490.517,596.943c-1.596-3.996-6.325-5.976-10.563-4.421
			s-6.38,6.054-4.784,10.05c1.597,3.995,6.327,5.976,10.565,4.42C489.972,605.438,492.114,600.938,490.517,596.943"/>
		<polygon clip-path="url(#SVGID_7_)" fill="#F995EB" points="462.338,592.821 464.375,592.074 468.668,602.823 463.783,604.615 		
			"/>
		<path clip-path="url(#SVGID_7_)" fill="#300D59" d="M471.184,589.072c0.112,0.602-0.701,1.249-1.816,1.446
			c-1.114,0.198-2.109-0.131-2.222-0.732c-0.112-0.603,0.701-1.25,1.816-1.447C470.077,588.142,471.072,588.47,471.184,589.072"/>
		<path clip-path="url(#SVGID_7_)" fill="#300D59" d="M459.582,592.132c0.402,0.476,0.01,1.409-0.878,2.084
			c-0.887,0.676-1.932,0.837-2.334,0.361c-0.401-0.476-0.009-1.408,0.878-2.084C458.135,591.818,459.18,591.656,459.582,592.132"/>
		<path clip-path="url(#SVGID_7_)" fill="#300D59" d="M778.803,351.326c-0.118,1.104,0.206,2.034,0.724,2.078
			s1.033-0.814,1.151-1.918s-0.206-2.035-0.724-2.079C779.436,349.362,778.921,350.222,778.803,351.326"/>
		<path clip-path="url(#SVGID_7_)" fill="#300D59" d="M793.584,352.507c-0.118,1.104,0.206,2.035,0.724,2.08
			c0.519,0.044,1.033-0.815,1.151-1.919s-0.206-2.035-0.724-2.08C794.217,350.544,793.703,351.403,793.584,352.507"/>
		<path clip-path="url(#SVGID_7_)" fill="#0D0C26" d="M786.488,363.233c-1.614,0.317-3.293-0.34-4.149-1.769
			c-0.097-0.161-0.351-0.013-0.253,0.148c0.927,1.545,2.736,2.246,4.479,1.903C786.75,363.479,786.672,363.197,786.488,363.233"/>
		<path clip-path="url(#SVGID_7_)" fill="#F995EB" d="M757.185,356.647c0.97-5.195,6.196-8.708,11.673-7.847
			c5.478,0.863,9.131,5.772,8.161,10.967s-6.196,8.708-11.673,7.847C759.869,366.751,756.215,361.843,757.185,356.647"/>
		<polygon clip-path="url(#SVGID_7_)" fill="#F995EB" points="790.153,344.958 787.522,344.544 784.913,358.52 791.228,359.513 		
			"/>
		<path clip-path="url(#SVGID_7_)" fill="#300D59" d="M778.6,342.551c0.008,0.752,1.143,1.339,2.533,1.311
			c1.391-0.03,2.511-0.662,2.502-1.414c-0.008-0.751-1.143-1.338-2.533-1.31C779.712,341.166,778.592,341.799,778.6,342.551"/>
		<path clip-path="url(#SVGID_7_)" fill="#300D59" d="M793.309,343.47c-0.371,0.67,0.325,1.699,1.555,2.302
			c1.23,0.601,2.528,0.547,2.899-0.122c0.37-0.669-0.326-1.7-1.557-2.301C794.977,342.746,793.68,342.802,793.309,343.47"/>
		<path clip-path="url(#SVGID_7_)" fill="none" stroke="#ECECEC" stroke-width="2" stroke-miterlimit="10" d="M1083.297,330.517
			h-87.944c-1.434,0-2.601-1.166-2.601-2.6V204.295c0-1.433,1.167-2.599,2.601-2.599h87.944c1.433,0,2.599,1.166,2.599,2.599
			v123.621C1085.896,329.351,1084.73,330.517,1083.297,330.517z M995.353,201.811c-1.371,0-2.486,1.114-2.486,2.485v123.621
			c0,1.372,1.115,2.487,2.486,2.487h87.944c1.371,0,2.486-1.115,2.486-2.487V204.295c0-1.371-1.115-2.485-2.486-2.485H995.353z"/>
		<path clip-path="url(#SVGID_7_)" fill="none" stroke="#ECECEC" stroke-width="2" stroke-miterlimit="10" d="M1181.808,330.517
			h-87.945c-1.433,0-2.599-1.166-2.599-2.6V204.295c0-1.433,1.166-2.599,2.599-2.599h87.945c1.434,0,2.6,1.166,2.6,2.599v123.621
			C1184.408,329.351,1183.242,330.517,1181.808,330.517z M1093.863,201.811c-1.369,0-2.484,1.114-2.484,2.485v123.621
			c0,1.372,1.115,2.487,2.484,2.487h87.945c1.371,0,2.486-1.115,2.486-2.487V204.295c0-1.371-1.115-2.485-2.486-2.485H1093.863z"/>
		<rect x="1027.578" y="212.041" clip-path="url(#SVGID_7_)" fill="#E1E1E1" width="145.031" height="127.771"/>
		<rect x="1024.947" y="222.972" clip-path="url(#SVGID_7_)" fill="#F5F5F5" width="145.029" height="116.84"/>
		<rect x="1044.275" y="242.607" clip-path="url(#SVGID_7_)" fill="#FFFFFF" width="104.248" height="77.57"/>
		<rect x="1005.816" y="222.972" clip-path="url(#SVGID_7_)" fill="#D8D8D8" width="19.13" height="116.84"/>
		<rect x="1005.816" y="222.972" clip-path="url(#SVGID_7_)" fill="#C9C9C9" width="19.13" height="7.439"/>
		<rect x="1005.816" y="212.041" clip-path="url(#SVGID_7_)" fill="#DDDDDD" width="164.159" height="10.931"/>
		<rect x="1024.946" y="222.972" clip-path="url(#SVGID_7_)" fill="#FAFAFA" width="44.178" height="4.555"/>
		<rect x="1069.124" y="222.972" clip-path="url(#SVGID_7_)" fill="#CECECE" width="44.178" height="4.555"/>
		<g opacity="0.24" clip-path="url(#SVGID_7_)">
			<g>
				<defs>
					<rect id="SVGID_12_" x="1007.252" y="231.929" width="6.69" height="6.695"/>
				</defs>
				<clipPath id="SVGID_13_">
					<use xlink:href="#SVGID_12_"  overflow="visible"/>
				</clipPath>
				<rect x="1007.251" y="231.929" clip-path="url(#SVGID_13_)" fill="#383838" width="6.695" height="6.695"/>
			</g>
		</g>
		<g opacity="0.24" clip-path="url(#SVGID_7_)">
			<g>
				<defs>
					<rect id="SVGID_14_" x="1016.812" y="231.929" width="6.7" height="6.695"/>
				</defs>
				<clipPath id="SVGID_15_">
					<use xlink:href="#SVGID_14_"  overflow="visible"/>
				</clipPath>
				<rect x="1016.816" y="231.929" clip-path="url(#SVGID_15_)" fill="#383838" width="6.695" height="6.695"/>
			</g>
		</g>
		<g opacity="0.24" clip-path="url(#SVGID_7_)">
			<g>
				<defs>
					<rect id="SVGID_16_" x="1016.812" y="241.493" width="6.7" height="6.695"/>
				</defs>
				<clipPath id="SVGID_17_">
					<use xlink:href="#SVGID_16_"  overflow="visible"/>
				</clipPath>
				<rect x="1016.816" y="241.493" clip-path="url(#SVGID_17_)" fill="#383838" width="6.695" height="6.695"/>
			</g>
		</g>
		<g opacity="0.24" clip-path="url(#SVGID_7_)">
			<g>
				<defs>
					<rect id="SVGID_18_" x="1007.252" y="241.493" width="6.69" height="6.695"/>
				</defs>
				<clipPath id="SVGID_19_">
					<use xlink:href="#SVGID_18_"  overflow="visible"/>
				</clipPath>
				<rect x="1007.252" y="241.493" clip-path="url(#SVGID_19_)" fill="#383838" width="6.695" height="6.695"/>
			</g>
		</g>
		<g opacity="0.24" clip-path="url(#SVGID_7_)">
			<g>
				<defs>
					<rect id="SVGID_20_" x="1007.252" y="251.057" width="6.69" height="6.695"/>
				</defs>
				<clipPath id="SVGID_21_">
					<use xlink:href="#SVGID_20_"  overflow="visible"/>
				</clipPath>
				<rect x="1007.251" y="251.058" clip-path="url(#SVGID_21_)" fill="#383838" width="6.695" height="6.694"/>
			</g>
		</g>
		<g opacity="0.24" clip-path="url(#SVGID_7_)">
			<g>
				<defs>
					<rect id="SVGID_22_" x="1016.812" y="251.057" width="6.7" height="6.695"/>
				</defs>
				<clipPath id="SVGID_23_">
					<use xlink:href="#SVGID_22_"  overflow="visible"/>
				</clipPath>
				<rect x="1016.816" y="251.058" clip-path="url(#SVGID_23_)" fill="#383838" width="6.695" height="6.694"/>
			</g>
		</g>
		<g opacity="0.24" clip-path="url(#SVGID_7_)">
			<g>
				<defs>
					<rect id="SVGID_24_" x="1016.812" y="260.622" width="6.7" height="6.695"/>
				</defs>
				<clipPath id="SVGID_25_">
					<use xlink:href="#SVGID_24_"  overflow="visible"/>
				</clipPath>
				<rect x="1016.816" y="260.622" clip-path="url(#SVGID_25_)" fill="#383838" width="6.695" height="6.694"/>
			</g>
		</g>
		<g opacity="0.24" clip-path="url(#SVGID_7_)">
			<g>
				<defs>
					<rect id="SVGID_26_" x="1007.252" y="260.622" width="6.69" height="6.695"/>
				</defs>
				<clipPath id="SVGID_27_">
					<use xlink:href="#SVGID_26_"  overflow="visible"/>
				</clipPath>
				<rect x="1007.252" y="260.622" clip-path="url(#SVGID_27_)" fill="#383838" width="6.695" height="6.694"/>
			</g>
		</g>
		<g opacity="0.24" clip-path="url(#SVGID_7_)">
			<g>
				<defs>
					<rect id="SVGID_28_" x="1007.252" y="270.186" width="6.69" height="6.695"/>
				</defs>
				<clipPath id="SVGID_29_">
					<use xlink:href="#SVGID_28_"  overflow="visible"/>
				</clipPath>
				<rect x="1007.251" y="270.186" clip-path="url(#SVGID_29_)" fill="#383838" width="6.695" height="6.695"/>
			</g>
		</g>
		<g opacity="0.24" clip-path="url(#SVGID_7_)">
			<g>
				<defs>
					<rect id="SVGID_30_" x="1016.812" y="270.186" width="6.7" height="6.695"/>
				</defs>
				<clipPath id="SVGID_31_">
					<use xlink:href="#SVGID_30_"  overflow="visible"/>
				</clipPath>
				<rect x="1016.816" y="270.186" clip-path="url(#SVGID_31_)" fill="#383838" width="6.695" height="6.695"/>
			</g>
		</g>
		<g opacity="0.24" clip-path="url(#SVGID_7_)">
			<g>
				<defs>
					<rect id="SVGID_32_" x="1016.812" y="279.75" width="6.7" height="6.695"/>
				</defs>
				<clipPath id="SVGID_33_">
					<use xlink:href="#SVGID_32_"  overflow="visible"/>
				</clipPath>
				<rect x="1016.816" y="279.75" clip-path="url(#SVGID_33_)" fill="#383838" width="6.695" height="6.695"/>
			</g>
		</g>
		<g opacity="0.24" clip-path="url(#SVGID_7_)">
			<g>
				<defs>
					<rect id="SVGID_34_" x="1007.252" y="279.75" width="6.69" height="6.695"/>
				</defs>
				<clipPath id="SVGID_35_">
					<use xlink:href="#SVGID_34_"  overflow="visible"/>
				</clipPath>
				<rect x="1007.252" y="279.75" clip-path="url(#SVGID_35_)" fill="#383838" width="6.695" height="6.695"/>
			</g>
		</g>
		<g opacity="0.24" clip-path="url(#SVGID_7_)">
			<g>
				<defs>
					<rect id="SVGID_36_" x="1007.252" y="308.443" width="4.1" height="4.103"/>
				</defs>
				<clipPath id="SVGID_37_">
					<use xlink:href="#SVGID_36_"  overflow="visible"/>
				</clipPath>
				<rect x="1007.252" y="308.443" clip-path="url(#SVGID_37_)" fill="#383838" width="4.103" height="4.103"/>
			</g>
		</g>
		<g opacity="0.24" clip-path="url(#SVGID_7_)">
			<g>
				<defs>
					<rect id="SVGID_38_" x="1019.413" y="308.443" width="4.1" height="4.103"/>
				</defs>
				<clipPath id="SVGID_39_">
					<use xlink:href="#SVGID_38_"  overflow="visible"/>
				</clipPath>
				<rect x="1019.409" y="308.443" clip-path="url(#SVGID_39_)" fill="#383838" width="4.103" height="4.103"/>
			</g>
		</g>
		<g opacity="0.24" clip-path="url(#SVGID_7_)">
			<g>
				<defs>
					<rect id="SVGID_40_" x="1013.333" y="308.443" width="4.1" height="4.103"/>
				</defs>
				<clipPath id="SVGID_41_">
					<use xlink:href="#SVGID_40_"  overflow="visible"/>
				</clipPath>
				<rect x="1013.331" y="308.443" clip-path="url(#SVGID_41_)" fill="#383838" width="4.103" height="4.103"/>
			</g>
		</g>
		<g opacity="0.24" clip-path="url(#SVGID_7_)">
			<g>
				<defs>
					<rect id="SVGID_42_" x="1013.523" y="295.581" width="9.949" height="9.951"/>
				</defs>
				<clipPath id="SVGID_43_">
					<use xlink:href="#SVGID_42_"  overflow="visible"/>
				</clipPath>
				<rect x="1013.518" y="295.581" clip-path="url(#SVGID_43_)" fill="#383838" width="9.951" height="9.951"/>
			</g>
		</g>
		<rect x="1007.252" y="289.314" clip-path="url(#SVGID_7_)" fill="#FFFFFF" width="9.951" height="9.951"/>
		<g opacity="0.24" clip-path="url(#SVGID_7_)">
			<g>
				<defs>
					<rect id="SVGID_44_" x="1102.283" y="251.928" width="33.399" height="33.399"/>
				</defs>
				<clipPath id="SVGID_45_">
					<use xlink:href="#SVGID_44_"  overflow="visible"/>
				</clipPath>
				<path clip-path="url(#SVGID_45_)" fill="#383838" d="M1118.984,285.327c-9.224,0-16.699-7.477-16.699-16.699
					c0-9.224,7.476-16.7,16.699-16.7c9.223,0,16.699,7.476,16.699,16.7C1135.683,277.85,1128.207,285.327,1118.984,285.327"/>
			</g>
		</g>
		<path clip-path="url(#SVGID_7_)" fill="#300D59" d="M1067.453,435.068c-0.029,1.068-0.458,1.916-0.958,1.892
			c-0.5-0.025-0.882-0.911-0.853-1.98c0.028-1.069,0.457-1.916,0.957-1.891C1067.099,433.112,1067.482,434,1067.453,435.068"/>
		<path clip-path="url(#SVGID_7_)" fill="#300D59" d="M1053.189,434.3c-0.029,1.069-0.458,1.917-0.958,1.893
			s-0.881-0.911-0.853-1.98s0.457-1.916,0.957-1.892S1053.218,433.232,1053.189,434.3"/>
		<path clip-path="url(#SVGID_7_)" fill="#0D0C26" d="M1058.496,445.722c1.607,0.543,3.42,0.104,4.496-1.237
			c0.116-0.146-0.089-0.354-0.207-0.206c-1.017,1.267-2.691,1.674-4.212,1.161C1058.394,445.379,1058.317,445.661,1058.496,445.722"
			/>
		<path clip-path="url(#SVGID_7_)" fill="#F995EB" d="M1087.409,442.922c-0.259-5.085-4.798-9.108-10.138-8.988
			c-5.34,0.12-9.458,4.339-9.198,9.423s4.799,9.108,10.138,8.988C1083.55,452.225,1087.668,448.006,1087.409,442.922"/>
		<polygon clip-path="url(#SVGID_7_)" fill="#F995EB" points="1057.433,427.533 1059.999,427.475 1060.698,441.152 
			1054.541,441.291 		"/>
		<path clip-path="url(#SVGID_7_)" fill="#300D59" d="M1068.771,426.717c-0.104,0.717-1.263,1.132-2.586,0.926
			c-1.323-0.205-2.313-0.953-2.208-1.67c0.104-0.717,1.263-1.132,2.587-0.926C1067.887,425.252,1068.875,426,1068.771,426.717"/>
		<path clip-path="url(#SVGID_7_)" fill="#300D59" d="M1054.611,425.708c0.269,0.687-0.528,1.58-1.78,1.997
			c-1.251,0.417-2.482,0.198-2.751-0.487c-0.268-0.687,0.528-1.581,1.78-1.998C1053.111,424.803,1054.343,425.021,1054.611,425.708"
			/>
		<g opacity="0.43" clip-path="url(#SVGID_7_)">
			<g>
				<defs>
					<rect id="SVGID_46_" x="670.283" y="473.922" width="45.93" height="22.657"/>
				</defs>
				<clipPath id="SVGID_47_">
					<use xlink:href="#SVGID_46_"  overflow="visible"/>
				</clipPath>
				<polygon clip-path="url(#SVGID_47_)" fill="#2F2D44" points="674.091,485.967 677.136,487.583 677.136,490.442 670.549,486.806 
					670.549,485.159 677.136,481.492 677.136,484.351 				"/>
				<path clip-path="url(#SVGID_47_)" fill="#2F2D44" d="M677.403,490.893l-7.12-3.93v-1.96l7.12-3.963v3.472l-2.743,1.455
					l2.743,1.455V490.893z M670.816,486.648l6.054,3.342v-2.247l-3.347-1.777l3.347-1.776v-2.245l-6.054,3.37V486.648z"/>
				<polygon clip-path="url(#SVGID_47_)" fill="#2F2D44" points="678.875,496.313 687.389,474.188 690.404,474.188 681.859,496.313 
									"/>
				<path clip-path="url(#SVGID_47_)" fill="#2F2D44" d="M682.042,496.579h-3.554l8.719-22.657h3.586L682.042,496.579z
					 M679.263,496.046h2.412l8.34-21.591h-2.442L679.263,496.046z"/>
				<polygon clip-path="url(#SVGID_47_)" fill="#2F2D44" points="712.404,485.967 709.359,484.382 709.359,481.492 715.946,485.159 
					715.946,486.806 709.359,490.442 709.359,487.583 				"/>
				<path clip-path="url(#SVGID_47_)" fill="#2F2D44" d="M709.092,490.892v-3.47l2.738-1.452l-2.738-1.426v-3.505l7.12,3.964v1.96
					L709.092,490.892z M709.625,487.743v2.247l6.055-3.342v-1.333l-6.055-3.37v2.276l3.353,1.744L709.625,487.743z"/>
				<path clip-path="url(#SVGID_47_)" fill="#2F2D44" d="M703.993,481.697l-6.814-3.914l-6.814,3.914v8.03l6.814,3.914l6.814-3.914
					V481.697z M702.199,482.043l-5.021,2.884l-5.021-2.884l5.021-2.884L702.199,482.043z M691.557,483.074l5.024,2.886v5.962
					l-5.024-2.886V483.074z M697.775,491.922v-5.962l5.023-2.886v5.962L697.775,491.922z"/>
				<path clip-path="url(#SVGID_47_)" fill="#2F2D44" d="M697.178,494.266l-7.356-4.226v-8.656l7.356-4.226l7.356,4.226v8.656
					L697.178,494.266z M690.905,489.413l6.273,3.603l6.272-3.603v-7.402l-6.272-3.603l-6.273,3.603V489.413z M697.233,492.857v-7.21
					l6.108-3.508v7.211L697.233,492.857z M698.317,486.273v4.712l3.94-2.262v-4.712L698.317,486.273z M697.123,492.857l-6.107-3.507
					v-7.211l6.107,3.508V492.857z M692.099,488.723l3.939,2.262v-4.712l-3.939-2.262V488.723z M697.178,485.551l-6.108-3.508
					l6.108-3.509l6.108,3.509L697.178,485.551z M693.246,482.043l3.933,2.259l3.933-2.259l-3.933-2.259L693.246,482.043z"/>
			</g>
		</g>
		<g opacity="0.43" clip-path="url(#SVGID_7_)">
			<g>
				<defs>
					<rect id="SVGID_48_" x="901.283" y="474.922" width="45.93" height="22.657"/>
				</defs>
				<clipPath id="SVGID_49_">
					<use xlink:href="#SVGID_48_"  overflow="visible"/>
				</clipPath>
				<polygon clip-path="url(#SVGID_49_)" fill="#2F2D44" points="905.091,486.967 908.136,488.583 908.136,491.442 901.549,487.806 
					901.549,486.159 908.136,482.492 908.136,485.351 				"/>
				<path clip-path="url(#SVGID_49_)" fill="#2F2D44" d="M908.403,491.893l-7.12-3.93v-1.96l7.12-3.963v3.472l-2.743,1.455
					l2.743,1.455V491.893z M901.816,487.648l6.054,3.342v-2.247l-3.347-1.777l3.347-1.776v-2.245l-6.054,3.37V487.648z"/>
				<polygon clip-path="url(#SVGID_49_)" fill="#2F2D44" points="909.875,497.313 918.389,475.188 921.404,475.188 912.859,497.313 
									"/>
				<path clip-path="url(#SVGID_49_)" fill="#2F2D44" d="M913.042,497.579h-3.554l8.719-22.657h3.586L913.042,497.579z
					 M910.263,497.046h2.412l8.34-21.591h-2.442L910.263,497.046z"/>
				<polygon clip-path="url(#SVGID_49_)" fill="#2F2D44" points="943.404,486.967 940.359,485.382 940.359,482.492 946.946,486.159 
					946.946,487.806 940.359,491.442 940.359,488.583 				"/>
				<path clip-path="url(#SVGID_49_)" fill="#2F2D44" d="M940.092,491.892v-3.47l2.738-1.452l-2.738-1.426v-3.505l7.12,3.964v1.96
					L940.092,491.892z M940.625,488.743v2.247l6.055-3.342v-1.333l-6.055-3.37v2.276l3.353,1.744L940.625,488.743z"/>
				<path clip-path="url(#SVGID_49_)" fill="#2F2D44" d="M934.993,482.697l-6.814-3.914l-6.814,3.914v8.03l6.814,3.914l6.814-3.914
					V482.697z M933.199,483.043l-5.021,2.884l-5.021-2.884l5.021-2.884L933.199,483.043z M922.557,484.074l5.024,2.886v5.962
					l-5.024-2.886V484.074z M928.775,492.922v-5.962l5.023-2.886v5.962L928.775,492.922z"/>
				<path clip-path="url(#SVGID_49_)" fill="#2F2D44" d="M928.178,495.266l-7.356-4.226v-8.656l7.356-4.226l7.356,4.226v8.656
					L928.178,495.266z M921.905,490.413l6.273,3.603l6.272-3.603v-7.402l-6.272-3.603l-6.273,3.603V490.413z M928.233,493.857v-7.21
					l6.108-3.508v7.211L928.233,493.857z M929.317,487.273v4.712l3.94-2.262v-4.712L929.317,487.273z M928.123,493.857l-6.107-3.507
					v-7.211l6.107,3.508V493.857z M923.099,489.723l3.939,2.262v-4.712l-3.939-2.262V489.723z M928.178,486.551l-6.108-3.508
					l6.108-3.509l6.108,3.509L928.178,486.551z M924.246,483.043l3.933,2.259l3.933-2.259l-3.933-2.259L924.246,483.043z"/>
			</g>
		</g>
	</g>
</g>
</svg>
