<?xml version="1.0" encoding="utf-8"?>
<!-- Generator: Adobe Illustrator 16.0.0, SVG Export Plug-In . SVG Version: 6.00 Build 0)  -->
<!DOCTYPE svg PUBLIC "-//W3C//DTD SVG 1.1//EN" "http://www.w3.org/Graphics/SVG/1.1/DTD/svg11.dtd">
<svg version="1.1" id="Layer_1" xmlns="http://www.w3.org/2000/svg" xmlns:xlink="http://www.w3.org/1999/xlink" x="0px" y="0px"
	 width="70.667px" height="70.667px" viewBox="0 0 70.667 70.667" enable-background="new 0 0 70.667 70.667" xml:space="preserve">
<rect fill="transparent" width="70.667" height="70.667"/>
<g>
	<defs>
		<rect id="SVGID_1_" x="-784" y="-374" width="1920" height="1080"/>
	</defs>
	<clipPath id="SVGID_2_">
		<use xlink:href="#SVGID_1_"  overflow="visible"/>
	</clipPath>
	<path clip-path="url(#SVGID_2_)" d="M11.146,67.449c-1.038,1.067-2.286,1.601-3.75,1.601c-1.463,0-2.729-0.533-3.795-1.601
		C2.533,66.383,2,65.117,2,63.653V9.787c0-1.463,0.533-2.712,1.601-3.75c1.066-1.036,2.332-1.555,3.795-1.555
		c1.464,0,2.712,0.519,3.75,1.555c1.036,1.038,1.555,2.287,1.555,3.75v25.607H8.676V9.421c0-0.304-0.123-0.594-0.366-0.869
		C8.066,8.278,7.762,8.141,7.396,8.141c-0.365,0-0.671,0.137-0.914,0.412C6.237,8.827,6.115,9.117,6.115,9.421v54.598
		c0,0.366,0.122,0.672,0.366,0.915C6.724,65.178,7.03,65.3,7.396,65.3c0.366,0,0.67-0.122,0.915-0.366
		c0.243-0.243,0.366-0.548,0.366-0.915V38.046H12.7v25.607C12.7,65.117,12.181,66.383,11.146,67.449"/>
	<path clip-path="url(#SVGID_2_)" d="M24.498,6.037c1.036,1.038,1.555,2.287,1.555,3.75v53.866c0,1.525-0.519,2.805-1.555,3.841
		c-1.038,1.037-2.287,1.555-3.75,1.555c-1.463,0-2.729-0.518-3.795-1.555c-1.068-1.036-1.601-2.316-1.601-3.841V9.787
		c0-1.463,0.533-2.712,1.601-3.75c1.066-1.036,2.332-1.555,3.795-1.555C22.211,4.482,23.46,5.001,24.498,6.037 M21.662,8.552
		c-0.244-0.274-0.548-0.412-0.914-0.412c-0.366,0-0.672,0.137-0.915,0.412c-0.244,0.274-0.365,0.594-0.365,0.96v54.506
		c0,0.366,0.121,0.672,0.365,0.915c0.243,0.245,0.549,0.366,0.915,0.366c0.366,0,0.67-0.122,0.914-0.366
		c0.243-0.243,0.366-0.548,0.366-0.915V9.513C22.028,9.146,21.905,8.827,21.662,8.552"/>
	<path clip-path="url(#SVGID_2_)" d="M37.85,6.403c1.036,1.038,1.555,2.287,1.555,3.75v53.135c0,1.524-0.519,2.805-1.555,3.841
		c-1.038,1.038-2.287,1.555-3.75,1.555h-5.396V4.848H34.1C35.563,4.848,36.812,5.367,37.85,6.403 M35.015,8.872
		C34.77,8.629,34.466,8.506,34.1,8.506h-1.28v56.519h1.28c0.366,0,0.67-0.137,0.915-0.412c0.243-0.274,0.365-0.595,0.365-0.96V9.787
		C35.38,9.421,35.257,9.117,35.015,8.872"/>
	<polygon clip-path="url(#SVGID_2_)" points="46.171,38.595 46.171,65.025 48.732,65.025 48.732,41.247 52.756,41.247 
		52.756,68.683 42.056,68.683 42.056,4.848 52.756,4.848 52.756,32.285 48.732,32.285 48.732,8.506 46.171,8.506 46.171,34.937 
		52.756,34.937 52.756,38.595 	"/>
	<path clip-path="url(#SVGID_2_)" d="M62.396,1l-6.906,3.967v8.127l6.906,3.967l6.907-3.967V4.967L62.396,1z M61.327,9.558v4.424
		l-3.7-2.125V7.433L61.327,9.558z M66.088,5.586l-3.692,2.121l-3.692-2.121l3.692-2.121L66.088,5.586z M63.465,13.982V9.558
		l3.699-2.125v4.424L63.465,13.982z"/>
</g>
</svg>
