<?xml version="1.0" encoding="utf-8"?>
<!-- Generator: Adobe Illustrator 16.0.0, SVG Export Plug-In . SVG Version: 6.00 Build 0)  -->
<!DOCTYPE svg PUBLIC "-//W3C//DTD SVG 1.1//EN" "http://www.w3.org/Graphics/SVG/1.1/DTD/svg11.dtd">
<svg version="1.1" id="Layer_1" xmlns="http://www.w3.org/2000/svg" xmlns:xlink="http://www.w3.org/1999/xlink" x="0px" y="0px"
	 width="340px" height="336px" viewBox="0 0 340 336" enable-background="new 0 0 340 336" xml:space="preserve">
<rect fill="#FFFFFF" width="340" height="336"/>
<g>
	<defs>
		<rect id="SVGID_1_" x="-784" y="-376" width="1920" height="1080"/>
	</defs>
	<clipPath id="SVGID_2_">
		<use xlink:href="#SVGID_1_"  overflow="visible"/>
	</clipPath>
	<path clip-path="url(#SVGID_2_)" d="M63.758,312.408c-4.737,4.875-10.439,7.309-17.121,7.309c-6.681,0-12.462-2.434-17.33-7.309
		C24.433,307.541,22,301.762,22,295.079V49.121C22,42.44,24.433,36.737,29.307,32c4.868-4.73,10.649-7.099,17.33-7.099
		c6.682,0,12.384,2.369,17.121,7.099c4.73,4.737,7.099,10.44,7.099,17.121v116.924H52.484V47.451c0-1.39-0.562-2.714-1.671-3.967
		c-1.116-1.253-2.506-1.879-4.176-1.879s-3.066,0.626-4.175,1.879c-1.117,1.253-1.671,2.577-1.671,3.967v249.298
		c0,1.671,0.554,3.066,1.671,4.176c1.109,1.116,2.505,1.671,4.175,1.671s3.06-0.555,4.176-1.671
		c1.109-1.109,1.671-2.505,1.671-4.176V178.155h18.373v116.924C70.857,301.762,68.488,307.541,63.758,312.408"/>
	<path clip-path="url(#SVGID_2_)" d="M124.724,32.001c4.73,4.736,7.099,10.439,7.099,17.121v245.957
		c0,6.962-2.369,12.809-7.099,17.538c-4.737,4.737-10.44,7.1-17.121,7.1c-6.681,0-12.462-2.362-17.33-7.1
		c-4.874-4.729-7.307-10.576-7.307-17.538V49.122c0-6.682,2.433-12.385,7.307-17.121c4.868-4.731,10.649-7.1,17.33-7.1
		C114.284,24.901,119.987,27.27,124.724,32.001 M111.779,43.484c-1.116-1.252-2.506-1.879-4.176-1.879
		c-1.671,0-3.067,0.627-4.176,1.879c-1.116,1.253-1.67,2.714-1.67,4.385v248.88c0,1.671,0.554,3.066,1.67,4.176
		c1.109,1.116,2.505,1.671,4.176,1.671c1.67,0,3.06-0.555,4.176-1.671c1.109-1.109,1.67-2.505,1.67-4.176V47.869
		C113.449,46.198,112.888,44.737,111.779,43.484"/>
	<path clip-path="url(#SVGID_2_)" d="M185.69,33.671c4.73,4.737,7.099,10.44,7.099,17.121v242.617
		c0,6.961-2.368,12.808-7.099,17.538c-4.737,4.737-10.44,7.099-17.121,7.099h-24.637V26.572h24.637
		C175.25,26.572,180.953,28.941,185.69,33.671 M172.745,44.946c-1.116-1.109-2.506-1.67-4.176-1.67h-5.846v258.067h5.846
		c1.67,0,3.06-0.627,4.176-1.879c1.109-1.253,1.67-2.715,1.67-4.385V49.122C174.415,47.451,173.854,46.062,172.745,44.946"/>
	<polygon clip-path="url(#SVGID_2_)" points="223.688,180.661 223.688,301.343 235.381,301.343 235.381,192.771 253.754,192.771 
		253.754,318.046 204.897,318.046 204.897,26.572 253.754,26.572 253.754,151.847 235.381,151.847 235.381,43.275 223.688,43.275 
		223.688,163.957 253.754,163.957 253.754,180.661 	"/>
	<path clip-path="url(#SVGID_2_)" d="M297.77,9l-31.535,18.112v37.111l31.535,18.113l31.536-18.113V27.112L297.77,9z
		 M292.889,48.078v20.199l-16.893-9.703V38.375L292.889,48.078z M314.629,29.94l-16.859,9.683L280.91,29.94l16.859-9.684
		L314.629,29.94z M302.65,68.276V48.078l16.893-9.702v20.198L302.65,68.276z"/>
</g>
</svg>
