<?xml version="1.0" encoding="utf-8"?>
<!-- Generator: Adobe Illustrator 16.0.0, SVG Export Plug-In . SVG Version: 6.00 Build 0)  -->
<!DOCTYPE svg PUBLIC "-//W3C//DTD SVG 1.1//EN" "http://www.w3.org/Graphics/SVG/1.1/DTD/svg11.dtd">
<svg version="1.1" id="Layer_1" xmlns="http://www.w3.org/2000/svg" xmlns:xlink="http://www.w3.org/1999/xlink" x="0px" y="0px"
	 width="500px" height="254.237px" viewBox="0 0 500 254.237" enable-background="new 0 0 500 254.237" xml:space="preserve">
<polygon points="44.374,135.339 77.273,152.794 77.273,183.686 6.102,144.4 6.102,126.609 77.273,86.993 77.273,117.885 "/>
<path d="M80.155,188.563L3.223,146.101v-21.178l76.932-42.824v37.514L50.52,135.339l29.635,15.728V188.563z M8.983,142.706
	l65.412,36.097v-24.273l-36.17-19.19l36.17-19.19V91.892L8.983,128.301V142.706z"/>
<polygon points="96.064,247.11 188.05,8.083 220.615,8.083 128.293,247.11 "/>
<path d="M130.269,249.99H91.872L186.074,5.205h38.737L130.269,249.99z M100.255,244.232h26.061l90.098-233.269h-26.387
	L100.255,244.232z"/>
<polygon points="458.305,135.339 425.405,118.217 425.405,86.993 496.577,126.609 496.577,144.4 425.405,183.686 425.405,152.794 
	"/>
<path d="M422.527,188.563v-37.497l29.586-15.695l-29.586-15.403v-37.87l76.93,42.824v21.178L422.527,188.563z M428.285,154.529
	v24.273l65.414-36.097v-14.405l-65.414-36.409v24.585l36.21,18.839L428.285,154.529z"/>
<path d="M367.431,89.204l-73.623-42.288l-73.625,42.288v86.76l73.625,42.284l73.623-42.284V89.204z M348.048,92.948l-54.24,31.147
	l-54.247-31.147l54.247-31.164L348.048,92.948z M233.077,104.088l54.28,31.181v64.409l-54.28-31.184V104.088z M300.25,199.678
	v-64.409l54.284-31.181v64.406L300.25,199.678z"/>
<path d="M293.808,225.001l-79.479-45.65V85.821l79.479-45.655l79.478,45.655v93.529L293.808,225.001z M226.035,172.577l67.772,38.92
	l67.769-38.92V92.592l-67.769-38.921l-67.772,38.921V172.577z M294.396,209.789v-77.912l65.993-37.901v77.909L294.396,209.789z
	 M306.104,138.659v50.909l42.575-24.453v-50.914L306.104,138.659z M293.212,209.789l-65.987-37.904V93.979l65.987,37.897V209.789z
	 M238.929,165.115l42.574,24.453v-50.909l-42.574-24.458V165.115z M293.808,130.845l-65.999-37.897l65.999-37.909l65.994,37.909
	L293.808,130.845z M251.313,92.948l42.494,24.405l42.488-24.405l-42.488-24.409L251.313,92.948z"/>
</svg>
